<?xml version="1.0" encoding="utf-8"?>
<!-- Generator: Adobe Illustrator 23.0.0, SVG Export Plug-In . SVG Version: 6.00 Build 0)  -->
<svg version="1.1" id="Capa_1" xmlns="http://www.w3.org/2000/svg" xmlns:xlink="http://www.w3.org/1999/xlink" x="0px" y="0px"
	 viewBox="0 0 305.4 88" style="enable-background:new 0 0 305.4 88;" xml:space="preserve">
<style type="text/css">
	.st0{fill:#DA4167;}
	.st1{fill:#DA4168;}
	.st2{fill:#053D7E;}
</style>
<rect x="-275.6" y="-162" class="st0" width="188.4" height="90.4"/>
<g>
	<path class="st1" d="M107.8,63.1c-11.1,0-10.8-5.6-10.8-5.6h16.9c15.3,0,14-12.8,14-12.8c-0.1-9.2-6.7-13.1-6.7-13.1
		c-8.2-6-30-2.7-30-2.7c-14,3.1-15.2,15.8-15.2,15.8c-2.3,12.9,1.5,21.5,1.5,21.5c5.7,13.4,25.2,12.1,25.2,12.1
		c20.1-0.3,23.8-4.4,23.8-4.4l-1.9-12C122.6,62.4,107.8,63.1,107.8,63.1z M96.7,45.3c0,0,0.4-4.5,5.3-4.5h3.2c0,0,2.9,0.9,3.2,2.9
		c0,0.1,0,0.2,0,0.3c0,1,0,1.4,0,1.5c0,0.1,0,0.1,0,0.1c0,0,0,0,0-0.1c0,0-0.1,2.5-3.1,2.5h-8.7V45.3z"/>
	<path class="st1" d="M108.4,45.6C108.4,45.7,108.4,45.7,108.4,45.6"/>
</g>
<path class="st1" d="M139.1,16.6v12.8h-8v11.9h8v24.4c0,0-0.8,11,13.8,13.1c0,0,12.3,0,18.2-2.7l-2.5-12.9h-5.8c0,0-3.5-0.3-3.5-3.7
	V41.2h11.7V29.3h-11.6V16.6H139.1z"/>
<path class="st2" d="M180.3,11.4l0.5,14.1h20.7c0,0,5.9,0.3,5.9,4.9v2.8c0,0-0.6,3.4-5.1,3.4h-14.9v12.8h15.1c0,0,5.6,0.4,5.6,5.5
	v2.6c0,0-0.4,4.9-6,4.9c0,0-7.1,0.8-22.7-0.4l-0.6,14.8c0,0,29.8,4.2,40.5-0.6c0,0,10.9-4.3,9.4-18.2c0,0,1.7-15.1-12.8-15.7v-0.6
	c0,0,9.9,0.7,10.8-12.4c0,0,3-13.7-7.6-18C219,11.4,212.5,7.5,180.3,11.4z"/>
<g>
	<path class="st2" d="M292.5,45.1c0-4.5-0.4-9-0.9-13.4c-0.6-5.4-2.1-11-5.8-15c-2.5-2.8-5.9-4.6-9.5-5.7
		c-5.3-1.6-11.1-1.7-16.6-1.4c-5,0.3-10.3,1.3-14.6,4.1c-7.8,5.1-8.5,13.8-9.4,22.2c-1.1,10.2-0.6,21.5,3.3,31c0.3,0.7,0.6,1.4,1,2
		c1.9,3.1,5,5.3,8.3,6.7c3.6,1.5,7.5,2.3,11.4,2.7c8.4,0.9,19.6,0.1,25.8-6.5C291.8,65.6,292.6,53.7,292.5,45.1z M264,63.1
		c0,0-6.9,0.6-7.3-7.9V31.8c0,0,0-6.8,7.3-6.8c0,0,6.8,0.4,7.1,6.8v23.3C271.1,55.1,271.5,63,264,63.1z"/>
</g>
<g>
	<path class="st1" d="M69.7,55.7c0,0-1.7-11.9-13.6-12.4c0,0,13.3-2.9,11.9-17c0,0,0.2-11.6-10.7-14.8c0,0-4.9-2.2-43.1-0.7V77
		c0,0,35.2,2.6,46.3-1C60.5,76,73.1,72.9,69.7,55.7z M34.5,23.9h7.8c5.7,0,5.5,6.6,5.5,6.6c0,6.7-4.6,6.6-4.6,6.6h-8.7V23.9z
		 M49.7,56.9c0,7.7-5.3,7.5-5.3,7.5h-9.9v-15h8.9C49.9,49.4,49.7,56.9,49.7,56.9z"/>
</g>
</svg>
