<?xml version="1.0" encoding="utf-8"?>
<!-- Generator: Adobe Illustrator 23.0.0, SVG Export Plug-In . SVG Version: 6.00 Build 0)  -->
<svg version="1.1" id="Capa_1" xmlns="http://www.w3.org/2000/svg" xmlns:xlink="http://www.w3.org/1999/xlink" x="0px" y="0px"
	 viewBox="0 0 358 88" style="enable-background:new 0 0 358 88;" xml:space="preserve">
<style type="text/css">
	.st0{fill:#FFFFFF;}
	.st1{fill:#FFAF00;}
	.st2{fill:#FFC45E;}
	.st3{fill:#005300;}
	.st4{fill:#D68353;}
	.st5{fill:#8A3800;}
	.st6{fill:#5A2314;}
	.st7{fill:#DF772C;}
	.st8{fill:#894B18;}
	.st9{fill:#CD8C00;}
	.st10{fill:#D48A6E;}
	.st11{fill:#8D2700;}
	.st12{opacity:0.39;fill:#FF8C2F;}
	.st13{fill:#00C0CB;}
	.st14{fill:#FFC55C;}
	.st15{fill:#FFC55D;}
	.st16{fill:#CD8353;}
	.st17{fill:#FFC35E;}
	.st18{fill:#FF9A01;}
	.st19{fill:#FF9B00;}
	.st20{fill:#FF9A06;}
	.st21{fill:#BB7B5B;}
	.st22{fill:#FEFEFE;}
	.st23{fill:#969391;}
	.st24{fill:#A698A1;}
	.st25{fill:#E7E7E7;}
	.st26{fill:#EAEAE7;}
	.st27{fill:#FFC564;}
	.st28{fill:#F2EFEB;}
	.st29{fill:#935D53;}
	.st30{fill:#F2B29D;}
	.st31{fill:#8D6154;}
	.st32{fill:#0C0000;}
	.st33{fill:#BAAFB4;}
	.st34{fill:#FF4900;}
	.st35{fill:#FABD2A;}
	.st36{fill:#002A00;}
</style>
<g>
	<path class="st0" d="M91.3,68.5c0,0.4-0.2,0.8-0.7,1.4c-4.2,5-9.7,7.5-16.6,7.5c-7.1,0-12.8-2.4-17.2-7.2
		c-4.3-4.7-6.4-10.6-6.4-17.7c0-6.9,2.1-12.7,6.3-17.6c4.4-5,9.9-7.6,16.7-7.6c7.4,0,13.1,2.3,17.3,6.8c0.5,0.5,0.7,0.9,0.7,1.3
		c0,0.4-0.8,2-2.4,4.8c-1.6,2.8-2.6,4.3-3,4.7c-0.2,0.2-0.4,0.3-0.7,0.3c-0.1,0-0.7-0.5-1.7-1.4c-1.2-1.1-2.4-1.9-3.6-2.6
		c-1.8-0.9-3.7-1.4-5.6-1.4c-3.3,0-6,1.2-8,3.7c-1.8,2.3-2.8,5.2-2.8,8.6c0,3.4,0.9,6.3,2.8,8.7c2,2.5,4.7,3.8,8,3.8
		c2,0,3.8-0.4,5.6-1.3c1.2-0.6,2.3-1.4,3.5-2.4c1-0.9,1.6-1.3,1.7-1.3c0.2,0,0.5,0.1,0.7,0.4c0.4,0.4,1.3,1.8,3,4.3
		C90.5,66.8,91.3,68.2,91.3,68.5z"/>
	<path class="st0" d="M129,59.1c0,1.7,0.1,4.3,0.3,7.8c0.2,3.4,0.3,6,0.3,7.8c0,0.9-0.4,1.4-1.2,1.5c-2.8,0.2-6,0.3-9.7,0.3
		c-0.4,0-0.7-0.7-0.9-2c-0.1-1.3-0.3-2-0.5-2c-0.2,0.1-0.4,0.3-0.7,0.6c-2.5,2.6-5.3,3.8-8.2,3.8c-4.4,0-8.1-1.7-11-5.2
		c-2.7-3.3-4.1-7.2-4.1-11.7c0-5.2,1.4-9.5,4.3-12.7c2.9-3.3,7-5,12.1-5c3.6,0,6.4,1.2,8.4,3.7c0.1,0.1,0.2,0.2,0.2,0.2
		c0.2,0,0.4-0.5,0.7-1.6c0.3-1.1,0.6-1.7,0.9-1.7c0.8,0,2.4,0.2,4.8,0.7c2.2,0.5,3.9,0.8,4.8,1.2c0.3,0.1,0.5,0.3,0.5,0.5
		c0,0.1,0,0.3-0.1,0.7C129.3,50.2,129,54.5,129,59.1z M118,59.3c0-1.9-0.6-3.5-1.8-4.8c-1.2-1.3-2.8-1.9-4.7-1.9s-3.5,0.6-4.7,1.9
		c-1.2,1.2-1.8,2.8-1.8,4.8c0,1.8,0.6,3.4,1.9,4.7c1.3,1.3,2.8,2,4.6,2c1.9,0,3.5-0.6,4.7-1.9S118,61.3,118,59.3z"/>
	<path class="st0" d="M190.1,74.9c0,0.8-0.3,1.2-1,1.3c-0.7,0.1-2.4,0.1-5,0.1c-2.8,0-4.5-0.1-5.2-0.2c-0.7-0.1-1-0.7-1-1.7
		c0-1,0-2.6,0.1-4.7c0.1-2.1,0.1-3.6,0.1-4.7c0-4,0-6.8-0.1-8.5c-0.1-2.7-1.4-4-3.8-4c-1.1,0-2.1,0.4-3.2,1.3
		c-1.1,0.9-1.6,1.9-1.8,3c-0.1,1-0.1,3.7-0.1,8.4c0,1.1,0,2.7,0.1,4.8c0.1,2.2,0.1,3.8,0.1,4.9c0,0.7-0.3,1.1-1,1.1h-10.3
		c-0.6,0-1-0.5-1-1.4c0-1.1,0-2.7,0.1-4.8c0.1-2.1,0.1-3.7,0.1-4.8c0-0.8,0-2.1-0.1-3.8c0-1.7-0.1-3-0.1-3.8c0-3.2-1.2-4.9-3.7-4.9
		c-1,0-2.1,0.4-3.2,1.2c-1.3,0.8-1.9,1.7-1.9,2.7c0,2.1,0,5.2,0,9.3c0,4.1,0,7.2,0,9.2c0,0.6-0.1,0.9-0.2,1.1s-0.5,0.2-1.1,0.3
		c-1,0.1-2.6,0.1-4.8,0.1c-1.4,0-3.1-0.1-4.9-0.2c-0.5,0-0.9-0.1-1-0.2c-0.1-0.1-0.2-0.5-0.2-1c0-1.8,0-4.5,0-8.2c0-3.6,0-6.3,0-8.2
		c0-3.7-0.3-7.9-0.8-12.6c0-0.3-0.1-0.5-0.1-0.6c0-0.4,0.2-0.6,0.5-0.8c0.5-0.2,1.4-0.4,2.8-0.5c1.7-0.2,2.7-0.3,3-0.3
		c0.2,0,1.1-0.3,2.7-0.7c1.1-0.3,2-0.5,2.7-0.5c0.4,0,0.7,0.8,0.7,2.4c0,1.6,0.1,2.4,0.3,2.4c0.2-0.1,0.5-0.2,0.8-0.5
		c2-1.6,3.7-2.7,4.8-3.3c1.7-0.8,3.6-1.3,5.7-1.3c2.1,0,3.9,0.5,5.6,1.4c1.8,1,3,2.5,3.6,4.4c1.2-1.6,2.9-3,5-4.1
		c2.1-1.1,4.2-1.7,6.2-1.7c3,0,5.4,0.7,7.3,2.1c2.1,1.6,3.2,3.8,3.2,6.7c0,1.2,0,3-0.1,5.4s-0.1,4.2-0.1,5.4c0,1.4,0,3.6,0.1,6.4
		S190.1,73.5,190.1,74.9z"/>
	<path class="st0" d="M227.8,57.7c0,2.3-0.7,3.6-2.2,3.9c-0.3,0-2.6,0.3-7,0.7c-2.7,0.3-6.7,0.6-12,1.1c0.3,1.5,1.3,2.6,2.9,3.4
		c1.3,0.6,2.8,1,4.5,1c2,0,4-0.5,6.1-1.6c0.9-0.5,1.7-1.1,2.6-1.6c0.5,0.2,1.3,1.4,2.4,3.5s1.7,3.4,1.7,4c0,0.2-0.2,0.4-0.5,0.8
		c-2.8,3-7.1,4.5-12.9,4.5c-5.4,0-9.8-1.6-13.1-4.7c-3.4-3.2-5.1-7.5-5.1-12.8c0-5.2,1.5-9.5,4.6-12.8c3.1-3.4,7.3-5.2,12.5-5.2
		c4.4,0,8.1,1.6,11.1,4.8C226.3,49.5,227.8,53.3,227.8,57.7z M215.9,55.6c0-1.4-0.5-2.6-1.5-3.7c-1-1.1-2.2-1.6-3.6-1.6
		c-1.4,0-2.6,0.6-3.5,1.8c-0.9,1.1-1.3,2.4-1.3,3.9c0,0.6,0.3,0.9,1,0.9c1.7,0,4.3-0.3,7.8-0.8C215.5,56,215.9,55.8,215.9,55.6z"/>
	<path class="st0" d="M243.9,55.7c0,6.2,0,10.9,0.1,14.3c0,0.5,0,1.4,0.1,2.7c0.1,1.2,0.1,2.1,0.1,2.7c0,0.5-0.3,0.8-0.9,0.9
		c-1,0.2-2.9,0.3-5.5,0.3c-2.7,0-4.5-0.1-5.2-0.3c-0.5-0.1-0.8-0.4-0.9-0.9c0-0.1,0-0.6,0-1.5c0-2,0-5,0.1-9.1c0-4,0.1-7,0.1-9
		c0-9.5,0-13.9,0-13c-0.1-5-0.4-9.3-0.9-13c0-0.2-0.1-0.4-0.1-0.6c0-0.5,0.3-0.7,0.9-0.7H244c0.6,0,0.8,0.2,0.8,0.7l0,0.6
		C244.2,39.5,243.9,48.1,243.9,55.7z"/>
	<path class="st1" d="M290.6,61.4c0,4.2-1.3,7.6-3.9,10.4c-3,3.2-8.2,4.7-15.7,4.7c-0.6,0-1.4,0-2.5,0c-1.1,0-1.9,0-2.4,0
		c-8.4,0-13.4-0.2-14.9-0.5c-0.7-0.1-1-0.5-1-1.1c0-2.4,0.1-6.1,0.4-11c0.3-4.9,0.4-8.6,0.4-11.1c0-2.6-0.1-7.6-0.4-14.8
		c-0.1-1.9-0.2-4.7-0.4-8.4l0-0.5c0-0.4,0.3-0.7,1.1-0.8c0.7-0.1,3.4-0.1,7.9-0.1c7.2,0,11.5,0,12.7,0.1c5.6,0.2,9.7,1.1,12.4,2.7
		c3.5,2.2,5.3,5.8,5.3,10.9c0,1.3-0.4,2.8-1.2,4.3c-0.6,1.1-1.4,2.1-2.3,3.2c-0.8,0.9-1.3,1.4-1.3,1.3c0,0.2,0.3,0.4,0.9,0.7
		c1.6,0.9,2.8,2.3,3.7,4.3C290.2,57.6,290.6,59.4,290.6,61.4z M276,42.3c0-2-1-3.2-2.9-3.9c-1.1-0.3-2.9-0.5-5.4-0.5
		c-2.5,0-3.7,0.2-3.7,0.5c0,0.4,0,1.1-0.1,2c-0.1,0.9-0.1,1.5-0.1,2c0,2.3,0.2,3.5,0.6,3.8c0.2,0.2,1.7,0.3,4.3,0.3
		C273.5,46.5,276,45.1,276,42.3z M277,61.3c0-2-0.9-3.4-2.6-4.2c-1.1-0.5-2.9-0.7-5.3-0.7c-2.9,0-4.5,0.1-4.8,0.3
		c-0.3,0.2-0.4,1.6-0.4,4.2c0,2.7,0.1,4.2,0.4,4.4c0.3,0.3,1.9,0.4,4.9,0.4c2.5,0,4.2-0.2,5.2-0.6C276.2,64.6,277,63.3,277,61.3z"/>
	<path class="st1" d="M325.9,57.7c0,2.3-0.7,3.6-2.2,3.9c-0.3,0-2.6,0.3-7,0.7c-2.7,0.3-6.7,0.6-12,1.1c0.3,1.5,1.3,2.6,2.9,3.4
		c1.3,0.6,2.8,1,4.5,1c2,0,4-0.5,6.1-1.6c0.9-0.5,1.7-1.1,2.6-1.6c0.5,0.2,1.3,1.4,2.4,3.5s1.7,3.4,1.7,4c0,0.2-0.2,0.4-0.5,0.8
		c-2.8,3-7.1,4.5-12.9,4.5c-5.4,0-9.8-1.6-13.1-4.7c-3.4-3.2-5.1-7.5-5.1-12.8c0-5.2,1.5-9.5,4.6-12.8c3.1-3.4,7.3-5.2,12.5-5.2
		c4.4,0,8.1,1.6,11.1,4.8C324.3,49.5,325.9,53.3,325.9,57.7z M313.9,55.6c0-1.4-0.5-2.6-1.5-3.7c-1-1.1-2.2-1.6-3.6-1.6
		c-1.4,0-2.6,0.6-3.5,1.8c-0.9,1.1-1.3,2.4-1.3,3.9c0,0.6,0.3,0.9,1,0.9c1.7,0,4.3-0.3,7.8-0.8C313.6,56,313.9,55.8,313.9,55.6z"/>
	<path class="st1" d="M352.4,66.2c0,0.7-0.1,1.7-0.3,3.1s-0.3,2.4-0.3,3c0,0.6-0.1,1.1-0.2,1.2c-0.1,0.2-0.5,0.4-1.1,0.8
		c-2.9,1.6-6.2,2.4-9.7,2.4c-6.6,0-9.8-2.5-9.8-7.5c0-1.5,0.1-3.7,0.2-6.8c0.1-3,0.2-5.3,0.2-6.8c0-1-0.6-1.5-1.7-1.5
		c-0.1,0-0.2,0-0.4,0c-0.2,0-0.4,0-0.4,0c-0.9,0-1.3-0.3-1.3-0.9c0-0.4,0-0.9,0.1-1.7c0.1-0.7,0.1-1.3,0.1-1.7c0-0.5,0-1.2-0.1-2.2
		c-0.1-1-0.1-1.7-0.1-2.2c0-0.5,0.7-0.7,2.2-0.7c0.8,0,1.3-0.2,1.3-0.7c0.1-0.9,0.2-2.2,0.1-4.1c-0.1-2.9-0.1-4.3-0.1-4.2
		c0-2.6,0.3-3.9,0.7-3.9c0.6,0,1.5,0.1,2.6,0.4c1.3,0.3,2.2,0.5,2.7,0.5c1.2,0.2,2.9,0.4,5.2,0.6c0.6,0,0.9,0.2,0.9,0.6
		c0,0.9-0.1,2.3-0.2,4.1c-0.1,1.8-0.2,3.2-0.2,4.2c0,1.1,0.3,1.7,1,1.7c0.8,0,2,0,3.6-0.1c1.6-0.1,2.8-0.1,3.6-0.1
		c0.5,0,0.7,0.2,0.7,0.5c0,0.5-0.1,1.3-0.2,2.3c-0.1,1-0.2,1.8-0.2,2.3c0,0.5,0,1.3,0,2.4c0,1,0,1.8,0,2.4c0,0.5-0.3,0.7-1,0.7
		c-0.5,0-1.2,0-2.3-0.1s-1.8-0.1-2.3-0.1h-2.6c-0.3,0-0.5,0.5-0.5,1.5c0,0.5,0,1.4,0,2.4c0,1.1,0,1.9,0,2.4c0,1.9,0.2,3.2,0.6,3.9
		c0.6,1,1.8,1.5,3.6,1.5c0.6,0,1.4-0.1,2.4-0.4s1.8-0.4,2.2-0.4C352.1,65.4,352.4,65.7,352.4,66.2z"/>
</g>
<g>
	<path d="M7.1,76.1c0,0-1.3-2-0.4-8c0,0,0.3-1.6,3.4-4.9c0,0,3.4-3.2,6.6-3.5c0,0,0.1-5.1-0.3-6.7L14.2,56c0,0-0.4,0.1-0.1-0.8
		c0,0,1.3-3.7,1.1-7.2c0,0-2.2,3.3-2.9,2.9c0,0-0.3-0.2,0.4-1.2c0,0,2.2-3.6,2-9.1c0,0-2.7,3.6-3.5,3.1c0,0-0.4-0.1,0.6-1.4
		c0,0,2.4-4.9,3-9.7c0,0,0.3-1.6-1.3-0.4c0,0,0.1-2.3,3.6-7.9c0,0-4.7,0.2-6.3-0.9c0,0-0.7,0.7-1.5,0.5c0,0-1.1-0.4-0.8-1.5
		c0,0-1.7-1.1-1.8-3.4c0,0-0.3-2,0.6-3.9c0,0-1.1-1-1-2.7c0,0,1.2,1,1.4,0.6c0,0,0.3-0.1-0.8-1.7c0,0,1,0.9,1.1,0.6
		c0,0-1.1-2.5,0.1-3.9c0,0,0,2.7,0.9,3.1c0,0,0.9-1.2,1.6-1.4c0,0-1.1,1.4-0.1,4.1c0,0,2.1,5.6,8,7.4l0.3-0.7l-1.3-0.1l-1.3-1
		l3.9-0.6l0.7-1.1c0,0,2.6-3.9,7.7-6.1c0,0,2.3-0.8,3.4-2.5c0,0,0.4,0.6-0.7,1.6c0,0,2.2-0.5,2.7-1.8c0,0,0.1,0.7-0.3,1.2
		c0,0,1.8-0.4,2.3-0.9c0,0-0.6,0.7-0.1,0.8c0,0,0.9,0,1.2-0.2c0,0-0.4,0.7,0,0.6l0.8-0.3l-0.5,0.5c0,0,3.9,2.5,6.2,5.3
		c0,0,2,0.8,3.6,2.3l2.7,0.1l1.9-1.7l1.5-1.7l1.3-1.6l0.3-1.6l0.6,0.1l0.7-2l0.1,1.2l-0.2,1l0.3-0.3l0.3-0.1v0.9
		c0,0-0.2,1.5-0.2,1.6s-0.6,1.3-0.6,1.3l-0.3,0.5l1.1-0.3L56,16.3c0,0-0.3,0.4-0.3,0.6s0,0.1,0,0.1s0.1,0.4,0.1,0.4
		c0,0.1,0.2,0.3,0.2,0.4s-0.3,0.8-0.3,0.8s0.1,0.4,0.1,0.5s0.1,1.1,0.1,1.3c0,0.2-0.6,4.1-0.6,4.2s-0.6,2.8-0.6,2.9
		c0,0.1-0.6,1.8-0.6,1.8l-1,1L51.9,31l-1.1,0.3l-0.6,0.2l0.3,0.4l0.2,0.4l0.1,0.3l1.7,0.3l1.1,0.6c0,0,0.8,0.4,0.8,1.1
		c0,0,0.8,1.6-2.4,2.5c0,0-0.1,0.8-0.3,1c0,0,0.1,0.7,0.7,1.7c0,0,4.1,6.7,5.3,7.7c0,0,3,3.9,3.6,5.5c0,0,2.1,5-1.7,6.5v0.2
		c0,0,4.9-1.7,12.2,0.1c0,0,0.4-1.8-1.5-2.9c0,0-2-1.5-1.4-3c0,0-0.1-1,2-1.8c0,0,3.4-0.8,3-3.7c0,0-0.1-1.8-0.6-2.5
		c0,0,1.3,1.3,1,3.7c0,0-0.1,2.2-2.8,3.5c0,0-1.6,1.3-0.3,2.7c0,0,2,1.6,1.4,4.2c0,0,1.3,0.9,1.2,2.5c0,0,0.1,2.9-2.7,2.9
		c0,0-4.8,0.1-10.9-2.2c0,0,1.9,3.6-1.3,6.4c0,0-1.3,1.4-4.4,1.8l0.1,1.4c0,0,2.9,1.3,2.4,2.9H7.1z"/>
	<path class="st2" d="M20.2,18.7c0,0,2.5-4.6,8.9-7.4c0,0,1.8-0.6,3-2.3c0,0,0.2,1-1.1,1.8c0,0,2.5-0.7,3-1.8c0,0,0.1,0.8-0.4,1.1
		c0,0,2-0.5,2.3-1c0,0-0.4,0.8,0,0.8L37,9.8c0,0-0.5,0.5-0.1,0.6l1-0.2c0,0-0.8,0.6-0.3,0.8c0,0,4.1,2.4,6,5c1.9,2.5,0,0.1,0,0.1
		s2.7,1.3,3.8,2.4C47.3,18.3,41.5,17.3,20.2,18.7z"/>
	<path class="st3" d="M46.3,72.4c0,0,1.3,3.2,0.7,3.7l9.9,0c0,0,0.8-1.8-2.4-2.9L54.5,72h-1.1C53.3,72,52.6,73.4,46.3,72.4z"/>
	<path class="st4" d="M27,12.4l-3.1,3.7l1.8-0.2l-3.9,2.7l-1.6,0.2C20.2,18.7,22.5,15,27,12.4z"/>
	<path class="st4" d="M40.2,12.6l1.2,2.3l2.2,1.1H44l-0.7-0.3C43.3,15.7,40.8,12.9,40.2,12.6z"/>
	<rect x="32" y="15.8" class="st5" width="0.2" height="1.3"/>
	<rect x="32.6" y="16.5" class="st5" width="0.2" height="0.5"/>
	<polygon class="st6" points="16.9,19.6 17.5,20.1 19.7,20 20.1,19.2 	"/>
	<path class="st7" d="M21.3,21.2c0,0,0.1,7.9,1.8,9.1c0,0,1.9,1.7,8,0.4c0,0,2.7-0.3,4-3.9c0,0,1.5-3.5,1.1-5c0,0-0.8-2.2-3.2-2.2
		l-9.8,0.3C23.3,19.8,21.4,19.8,21.3,21.2z"/>
	<path class="st8" d="M22.7,24.7c0,0,8.6-1.1,11.7-0.8c0,0-1.9,3.5-6.1,2.8C28.3,26.8,25.7,26.8,22.7,24.7z"/>
	<path class="st9" d="M26.9,24.6c0,0,1.8-0.4,5.3-0.4c0,0-0.7,1.4-2.9,1.3C29.4,25.6,27.6,25.6,26.9,24.6z"/>
	<path class="st10" d="M22.4,29.3c0,0,0.9-0.3,1.3-0.1c0,0,0.7,0.3,1,0.7c0,0,0.8,0.2,0.8-0.5c0-0.1,1.1-1,1.8-0.1
		c0,0,0.3,0.3,0.6-0.4c0,0,0.6-0.8,1.1,0c0,0,0.7-0.7,1.7,0.5c0,0,0.7,0.7,0.4,1.1c0,0-3.7,0.4-6,0.4C25,31,22.9,30.8,22.4,29.3z"/>
	<path class="st11" d="M22.3,25.1c0,0-0.3,0.3-0.3,0.6c0,0,0.8,1,2.7,1.7c0,0,2.2,0.6,3.6,0.3c0,0-3.5,0.3-6-2.1
		C22.3,25.6,22.1,25.1,22.3,25.1z"/>
	<path class="st11" d="M34.4,25.2c0,0-1.1,1.5-2.3,1.8c0,0,1.6-0.5,2.5-1.6C34.6,25.5,34.7,25.2,34.4,25.2z"/>
	<path class="st12" d="M28.6,19.6l-5.8,10.2c0,0,0.3,1.2,3.1,1.2l6.3-11.4H28.6z"/>
	<path class="st12" d="M48.8,19.6l-4.8,8c0,0,0.3,0.9,2.5,0.9l5.2-8.9H48.8z"/>
	<path class="st2" d="M18.7,21.3l-0.6,1.2c0,0-4.6-0.3-6.3-1.8c0,0-0.7-0.3-0.3-0.9c0,0,0.7-0.3,0.1-0.8l-3-1.8c0,0-0.3-0.2-0.1-0.4
		c0,0,0.4-0.6-0.1-0.9c0,0-2-1.8-2-3.6c0,0,1,0.8,1.5,0.6c0,0,0.3-0.2-0.2-0.7c0,0-0.6-0.6-0.6-1c0,0,1,0.8,1,0.3
		c0,0,0.1-0.4-0.4-0.9c0,0-0.4-1.8,0.6-2.9c0,0,0,3,1,3.1c0,0,1-1.3,1.6-1.3c0,0-1.2,1.7-0.4,3.6C10.4,13.2,13.3,20.4,18.7,21.3z"/>
	<ellipse class="st13" cx="9.8" cy="22.5" rx="1.2" ry="1.1"/>
	<path class="st14" d="M50.1,18.2c0,0,4.6-4.3,4.4-6l0.5,0.2c0,0,0.5-0.8,0.8-1.9c0,0,0.1,1.2-0.4,1.9c0,0,0.4,0.3,0.8-0.3
		c0,0,0.4,2.3-1.1,4.3c0,0,0.7-0.4,1.4-0.4c0,0-1.3,1-0.5,1.5c0,0,0.1,0.7-0.4,1L50.1,18.2z"/>
	<path class="st14" d="M36.7,19.4c0,0,1,1.5,1,2.3c0,0,2-0.8,3.2,0l1.1-2.3C42,19.4,39.7,19.1,36.7,19.4z"/>
	<path class="st15" d="M28.4,76.1l-0.3-5.6l0.5-3.4l2.1,0.3c0,0,4.2,4.1,4.3,4.1c0.1,0,3.6,1.1,3.7,1.2s1,1.5,1.1,1.6
		c0.1,0.1,1.3,1.9,1.3,1.9L28.4,76.1z"/>
	<path class="st16" d="M16.6,43.6c0,0-0.9,5,1.5,7.8l2.4,2.9L24.6,71c0,0,0.6,4.3,1.7,5l0.1,0.1l2-0.1c0,0,0.2-0.4,0.1-1
		c0,0-0.9-5.2,0.9-7.4c0,0,2.7,5.6,9.1,5.5c0,0-0.4,1.8-4.8,0.3c0,0,1.9,2.9,5.7,0.8L36.8,76h1.8l1-0.7c0,0,0.3,0.6,0.2,0.8l5-0.1
		c0,0-0.4-3.1-1-4.1c0,0-5.3-0.6-7.8-4.1c0,0-2-2.3-2.6-4.5c0,0-3.5-1.5-3.4-4.5c0,0,0.2-3.2,0.7-4.3c0,0-4.6,1-8.4-1.8
		C22.2,52.7,16.9,49.2,16.6,43.6z"/>
	<path class="st4" d="M20.5,50.4c0,0,3.4,4.3,10.4,3.7l1-2.8c0,0-1.6-4.5-3.9-6.2c0,0,0.1,1.1-1.7,0.3c0,0-0.7-0.3-0.6,0.2l-0.6,2.6
		l-4.6,1.8L20.5,50.4z"/>
	<path class="st17" d="M17.5,37.5c0,0-2.3,7.6,3,12.9c0,0,0.9-0.4,2.1,0.5c0,0,4.4,2.9,6.7,1c0,0,1.5-1.1,0-3c0,0-1.1-2.6-3.4-3.3
		c0,0-1,0.5-1.5-0.7c0,0-0.3-0.8-1-0.8c0,0-0.9,0.8-1.8,0.1c0,0-0.9-0.4-0.8-0.9c0,0,0-0.8-0.4-1.4c0,0-0.9-0.2-0.8-0.9
		c0,0,0.1-0.9-0.4-1.2c0,0-1,0.1-0.9-0.8C18.2,39,18.1,38.1,17.5,37.5z"/>
	<path class="st15" d="M30.8,47.4c0,0-1.5-2.1-2.5-2.8c0,0,0.5-0.1,0.3-1c0,0,0.7-0.3,0.5-2c0,0,1.8,0.5,2.2-0.8l1.3-0.1l0.2,2.4
		l-1.5,4.2L30.8,47.4z"/>
	<path class="st4" d="M30.8,47.4c0,0,2.2-3.6,1.9-5.4l-1.4-1.2c0,0,0.4-1.1,0.1-1.7c0,0,0.6,0.1,0.7-0.1c0,0,1.1,1.3,3.9,1.4
		c0,0-3.3,7.3-3.7,9.8C32.3,50.3,31.3,47.8,30.8,47.4z"/>
	<path class="st2" d="M56.1,60.5h-2c0,0-3.4,0.9-3.7,1.1c0,0-7.3,2.8-12.3,2.1c0,0-5,0.6-7.3-3.4c0,0-0.8-1.8,0.4-5.6l5.1-13.5
		l3.9-2c0,0,0.6-0.8-0.2-0.6c0,0-3.4,2-5.8,1c0,0-2.7-0.4-2.2-3c0,0,0.4-1.3,3.4-1.5c0,0,3.2-0.3,3.8-0.6c0,0,4.4-1.4,6.4-1.3
		c0,0,5-1.1,7.4,0.3c0,0,2.2,1.2,0.1,2.7c0,0-0.4,0.5-1.6,1.1c0,0-2.1,0.3-2.7-0.1c0,0-0.5,0.2,0.2,0.5c0,0,1,0.3,1.6,0.2
		c0,0,0.5-0.1,0.7,0.6c0,0,4.2,7.9,6.5,9.7c0,0,6.7,8,1.6,11.3C59.6,59.6,57.5,59.8,56.1,60.5z"/>
	<path d="M43.7,40c0,0-0.3-3.1-4.4-3.4s-3.6,1.4-3.3,1.7c0,0,1.1,1.2,4.3-0.3C40.1,38,41.8,37,43.7,40z"/>
	<path d="M46.5,38.9c0,0-0.1-3.6,3.7-4.1c0,0,1.7-0.1,1.4,0.9c0,0-0.4,1.1-2.3,0.8c0,0-1.4-0.1-2,0.8C47.4,37.3,46.5,38.2,46.5,38.9
		z"/>
	<path class="st18" d="M30.7,56.1c0,0-1.6,5.1,2.7,6.8c0,0,3.5,1.5,8,0.8c0,0,6.3-1,8.3-1.8c0,0-10.6,2.3-14.4,0.7
		C35.3,62.6,30.5,61.4,30.7,56.1z"/>
	<path class="st19" d="M54.2,60.4c0,0,6.6-1.5,6.9-7c0,0,1.6,4-1.6,6.1c0,0-0.2,0.3-1.3,0.3c0,0-1.5,0.4-2,0.8L54.2,60.4z"/>
	<path class="st2" d="M26.2,76h-4.1c0,0-3.4-0.6-5.4-6.2c0,0,0.5-14.2-0.4-16.9l-2.2,3c0,0,1.6-5.4,1.1-7.9c0,0-2.3,3-2.7,2.7
		c0,0-0.2-0.4,0.4-1c0,0,2.3-4.6,2-9.3c0,0-3.3,4.1-3.5,3c0,0,3.3-6.6,3.6-11.1c0,0,0.1-1.5-1.3-0.1c0,0,0.9-3.6,3.6-8.1
		c0,0-5.4-0.1-6.3-0.8c0,0,0.2-1.6-0.8-1.7c0,0-1.1-0.3-1.4,0.8c0,0-3-1.5-1.4-7.1l0.4,0.6l0.4,0.4l0.2,0.2l0.1,0.2l-0.2,0.3L8.1,17
		l0.1,0.4l0.4,0.3l2.3,1.5c0,0,0.7,0.3,0.2,0.6c0,0-0.6,0.3-0.1,0.8c0,0,0.7,1.8,7,2.2L17.9,23c0,0-0.1,1.1,0.4,1.7l1.4,2.2
		c0,0-1.4-2.3-1.5-3.4c0,0,0.3-1.1,1.5-2.3c0,0,0.1,3.9,0.6,6.2c0,0,0.2,2.1,1.6,3.6c0,0,0.1,0.7,0.4,1.1c0,0-0.7,0.2-0.6,0.4
		c0,0-1,0.1-1.1,0.9c0,0-0.5,0.5-1.1,0.5c0,0-1.6,0.7-1.7,1.5l-0.2,0.5c0,0-0.4,0.4-0.2,1.3c0,0-0.7,1.1-0.6,2.2
		c0,0-0.5,2.3-0.3,4.4c0,0-1,5.1,1.7,7.9l2.2,2.7C20.5,54.2,24.8,75.6,26.2,76z"/>
	<path class="st20" d="M34.1,63.7c0,0,2.1,0.8,5.4,0.6c0,0,5.2,4.8,13,4.7c0,0,7.1,0.4,5.5-6.1l2.3,0.8c0,0,0.6,1.5,0.3,2.8
		c0,0-0.6,4-4.7,4.6c0,0-3.9,1.3-7.3-0.5c0,0-3.7-2-6.6-2c0,0,3.4,0.8,5.6,2.1c0,0,2.7,1.8,5.3,1.3c0,0-1.2,1.3-9.5-0.4
		c0,0-5.4-1.1-7.5-4.4C36,67.1,34.2,64.9,34.1,63.7z"/>
	<path class="st2" d="M35,29.6c0,0,1.6-2,2.1-3.5c0,0,1-3.1,2.6-3.6c0,0,0.1,1.9,1.5,2.9c0,0,2,2,3,2.2c0,0,1.5,1.3,1.8,1.5
		c0,0,0.8,0.7,1,1.1c0,0,3.1,1.8,3.5,2.3l-0.3,0.2c0,0-1.6,0.1-2.3,0s-2.6,0.3-2.6,0.3s-2.3,0.4-2.4,0.4s-2.5,0.5-2.5,0.5
		s-1.2,0.4-1.4,0.5c-0.2,0.1-1.7,0.4-1.7,0.4h-0.7c0,0-1.7,0.2-1.8,0.2S33.4,35,33.4,35s-0.6-1.6-0.6-1.7s-3.1,2.3-3.3,2.3
		s-0.6,0.5-0.8,0.3c-0.1-0.2-0.4-1.1-0.4-1.1l0.2-2.2l1-0.7l2.4-0.6C32,31.3,33.4,30.9,35,29.6"/>
	<path class="st21" d="M44.6,19.6c0,0-2.2,0.4-1.9,3.2l0.2,3.6c0,0,1.8,0.8,2.3,1.7c0,0,1.5,1.1,1.7,1.5l1.7,1c0,0,2.7,0.1,3.4-1.1
		c0,0,1.1-0.6,1.8-3.7c0,0,0.5-3.4,0.4-4.1c0,0,0.2-1.6-2.3-1.8C52.1,19.8,48.9,19.3,44.6,19.6z"/>
	<path class="st7" d="M48.7,19.5c0,0,1.8,2,1.5,3.2c0,0-1.2,3.2-2.7,4.3c0,0,2.6,2.8,3,3.5h-2v0.1c0,0-2.4-1.7-3.4-2.6
		c0,0-1-1-2.2-1.3c0,0-0.6-4.6,0.5-6.1C43.4,20.5,44.3,19.1,48.7,19.5z"/>
	<path class="st12" d="M49.4,19.6L45,27.7c0,0,0.2,1,2.3,1l4.8-9H49.4z"/>
	<path class="st8" d="M42.7,23.8l5.3-0.4c0,0,0.1,2.1-3.3,2.1c0,0-0.7,0.1-1.9-0.1L42.7,23.8z"/>
	<path class="st9" d="M43,24.3c0,0,2.5-0.4,3.6-0.2c0,0-0.9,0.9-2.1,0.7C44.5,24.7,43.1,24.7,43,24.3z"/>
	<path class="st22" d="M21.9,31l0.3,1l-0.4,0.3l-0.1,0.2c0,0-0.8-0.1-1.1,0.9c0,0-1.8,0.6-2.4,1.5c0,0-1.1,1.4-0.6,2.3l0.2,0.5
		c0,0,0.7,1.1,0.7,2c0,0,0.1,0.3,0.8,0.3c0,0,0.6,0.4,0.4,1.5c0,0,0.3,0.6,0.8,0.6c0,0,0.4,0.5,0.4,1.6c0,0,0.8,1.3,1.8,0.9
		c0,0,0.7-0.3,1.1-0.4c0,0,0.5,0.1,1,1.2c0,0,0.8,0.6,1.2,0.3c0,0,0.3-0.6,1,0c0,0,1.5,0.4,1.3-0.8c0,0,0.7-0.1,0.5-1
		c0,0,0.8-1,0.5-2c0,0,2.8,0.8,2.3-2.5c0,0,0.7,0.1,0.7-0.1c0,0-0.3-0.8,0-1.3c0,0-0.6-1.5,1.4-2.2c0,0,0.1-1.1,0.3-1.6
		c0,0,1-1.1,1.7,0.1c0,0,1,3.6,1.9,3.6c0,0-1.2-1.6-0.7-2.9c0,0,0.6-1.8,0.3-2.8c0,0-0.1-1.3-2.1-2.3c0,0-2.2,1.9-3.1,1.8v0.5
		c0,0,0.1,0.3-0.4,0.2c0,0-1.1,0.1-1.4,1.3c0,0-0.5,3.6-1.3,2.1c0,0,0.3-1,0.8-1.4c0,0-0.2-0.5-0.1-1c0,0,0.1-1,0.6-1.1
		c0,0-3.5,0.1-5.6,0.1C24.2,32,22.6,31.7,21.9,31z"/>
	<path class="st23" d="M19.2,35.1c0,0-0.8,2-0.7,2.9c0,0-0.4,0.2-0.5-0.5C18,37.5,18,35.7,19.2,35.1z"/>
	<path class="st24" d="M25.5,44.3c0,0-0.4,0.3-0.6,0.1c0,0-0.3,0.5,0.4,0.7c0,0,0.4-0.1,0.5-0.5c0,0,0.4-0.5,0.7-0.2
		c0,0,0.3,0.4,0.7,0.1c0,0,0.4-0.4,0.5-0.7c0,0,0.5-0.9,0.6-0.7c0,0,0.1-0.5-0.1-0.7c0,0,0.1,0.2,0,0.4c0,0,0,0-0.1,0.1
		c-0.2,0.1-0.7,0.6-0.9,0.9c0,0-0.2,0.4-1.2,0C26.1,43.7,25.5,43.7,25.5,44.3z"/>
	<path class="st25" d="M27.4,33l-0.3,0.6l0.1,0.6l-0.4,0.3l-0.4,0.5l-0.3,0.4v0.8c0,0,0.3,0.2,0.3,0.4c0,0.2,0.3,0.5,0.3,0.5
		l0.3,0.2h0.3h0.4c0,0,0.3-0.1,0.4-0.2c0.1-0.1,0.3-0.3,0.3-0.4s0.1-0.3,0.2-0.4c0.1-0.1,0.1-0.4,0.1-0.4l-0.2-0.2
		c0,0-0.1-0.2-0.1-0.3c0-0.1-0.1-0.4,0-0.4c0.1,0,0.2-0.3,0.3-0.3c0.1-0.1,0.3-0.3,0.3-0.4c0.1-0.1,0.2-0.2,0.2-0.3
		c0-0.1,0-0.3,0-0.3S29,33.6,29,33.4c0-0.1,0-0.5,0-0.5s0.1-0.1,0.1-0.2c0-0.1,0.1-0.4,0.1-0.4c0.1,0,0.1-0.3,0.1-0.3l-1.8,0.3
		L27.4,33z"/>
	<path class="st25" d="M30,38.2c0,0-0.1,0.4-0.1,0.5S30,39,30,39.1c0,0.1,0.1,0.3,0.1,0.4c0,0.1,0.1,0.2,0,0.3
		c-0.1,0.1-0.2,0.1-0.2,0.1s0,0.1-0.2-0.1c-0.2-0.1-0.1-0.3-0.3-0.3c-0.2-0.1-0.3-0.2-0.4-0.2s-0.2-0.1-0.3,0
		c-0.1,0.1-0.3,0.1-0.3,0.1s0.1,0.1,0,0.2c-0.1,0.1,0,0.1,0,0.3c0,0.1,0,0.1,0.1,0.2c0.1,0.1,0.1,0.2,0.2,0.3
		c0.1,0.1,0.2,0.3,0.2,0.3s0,0.2,0.1,0.1c0.1-0.1,0.4,0.1,0.4,0c0.1-0.1,0.1-0.1,0.2-0.1c0.1-0.1,0.1,0,0.3-0.1
		c0.2-0.1,0.1-0.1,0.3-0.1c0.1-0.1,0.2-0.1,0.3-0.1c0.1-0.1,0.1-0.3,0.1-0.3s0-0.3,0-0.4c0-0.1,0-0.1,0-0.3c0-0.2-0.1-0.3,0-0.4
		c0.1-0.1,0-0.2,0.1-0.2s0.3,0.1,0.4-0.1c0.2-0.2,0.3-0.3,0.3-0.4c0.1-0.1,0.1,0,0.1-0.1c0.1-0.1-0.1-0.1,0-0.3c0.1-0.2,0-0.4,0-0.5
		s0-0.3-0.1-0.3c-0.1,0-0.1,0-0.2,0s-0.3,0.1-0.4,0.2c-0.2,0.1-0.3,0.3-0.4,0.3s-0.2,0.3-0.3,0.4C30.1,38,30,38.2,30,38.2z"/>
	<path class="st26" d="M19.2,39.2v-0.8c0,0,0.1,0,0.1-0.1c0.1-0.1,0.3-0.3,0.3-0.3s0.1-0.1,0.1-0.1c0.1,0,0.3,0,0.3,0s0.2-0.1,0.3,0
		c0.1,0.1,0.3,0.1,0.3,0.1s-0.1,0.3,0,0.3c0.1,0,0.1,0.2,0.1,0.2s0.1,0.1,0,0.1c-0.1,0.1-0.1,0.1-0.1,0.1c-0.1,0.1-0.2,0.1-0.3,0.2
		c-0.1,0.1-0.3,0.2-0.3,0.3s-0.1,0.3-0.1,0.3s-0.1,0.1,0,0.1c0.1,0.1,0.1,0.1,0.2,0.2c0.1,0.1,0.1,0.1,0.1,0.3c0,0.1,0,0.1,0,0.3
		c0,0.2-0.1,0.2,0,0.3c0.1,0.1-0.1,0.1,0.1,0.2c0.2,0.1,0.2,0.2,0.3,0.3c0.1,0.1,0.3,0.1,0.4,0.1s0.3,0,0.3,0.1
		c0.1,0.1,0.2,0.1,0.3,0.1c0.1,0.1,0.3,0.1,0.3,0.2s0.1,0.1,0,0.2c-0.1,0.1-0.1,0.3-0.1,0.4c0,0.1,0,0,0,0.3c0,0.3,0.1,0.3,0.1,0.4
		c0.1,0.1-0.1,0.1,0.1,0.2c0.2,0.1,0.2,0.1,0.3,0.2c0.1,0.1,0,0.1,0.3,0.1s0.4,0,0.5,0s0.2-0.1,0.3,0.1c0.1,0.1,0.1,0.1,0.1,0.2
		c0,0.1,0.1,0.2-0.2,0.3c-0.3,0.1-0.3,0.1-0.5,0.1s-0.4,0.1-0.6,0c-0.2-0.1-0.3-0.3-0.4-0.3c-0.1-0.1-0.1,0-0.3-0.2
		s-0.2-0.4-0.2-0.4s0-0.2,0-0.2l0-0.5c0,0,0.1-0.1,0-0.2s-0.2-0.2-0.3-0.3c-0.1-0.1,0-0.2-0.2-0.2s-0.2,0-0.4-0.1
		c-0.2-0.1-0.3-0.1-0.4-0.2s-0.3-0.1-0.3-0.2c0-0.1,0-0.2,0-0.3s-0.1-0.3-0.1-0.3s0-0.3,0-0.3c0-0.1,0-0.2,0-0.3
		c0-0.1-0.1-0.1-0.1-0.2c0-0.1-0.1-0.2-0.1-0.2l-0.1-0.1L19.2,39.2L19.2,39.2z"/>
	<path class="st27" d="M42.1,68.6c0,0-1.7-1,0.1-1.5c0,0,1.6-0.3,2.3,0.1c0,0,2.5,1.5,4.4,1.5c0,0,6.3,0.7,7.4-0.5
		c0,0,2.9-1.2,1.7-5.2l2.3,0.7c0,0,1.3,3.4-0.7,5.2c0,0-1.4,2.8-7.7,2.7c0,0-1.6-0.1-4.5-1.5C47.3,70.1,44.4,68.5,42.1,68.6z"/>
	<path class="st28" d="M51,68.5h-1c0,0-1.7-1.2-1.8-2.5l0.7-0.3h1.7L51,68.5z"/>
	<path class="st28" d="M52.1,68.5c0,0-1-0.6-1.1-3.9l1.7-0.9c0,0,0.8-0.3,1.4,0.3c0.3,0.3,0.4,0.6,0.4,0.6s-0.1,0.5,0,0.6
		c0.1,0.1,0.1,1.1,0.1,1.1s0.1,0.3,0.1,0.4c0.1,0.1,0.1,1.5,0.1,1.5S54.2,68.5,52.1,68.5z"/>
	<path class="st28" d="M55.1,68c0,0,0.3-3.2-0.1-4.4c0,0,1-0.8,2.3-0.5c0,0,0.3,0,0.3,0.7c0,0.3,0.2,1.9-0.3,2.6
		C57.3,66.4,56.8,67.8,55.1,68z"/>
	<path class="st29" d="M63.2,59.9c0,0,0.5-0.5-0.4-0.4c0,0-4.5,0.2-6.3,1.5c0,0-0.7,0.9,0.8,1.3l5.3,1.8
		C62.6,64.1,61.8,61.8,63.2,59.9z"/>
	<path class="st30" d="M64.4,59.5c0,0-2.3,1.5-1,4.8l2.1,0.5c0,0-0.6-1-0.5-3.1c0,0,0.3-1.4,1.2-2.2C66.3,59.6,65.9,59.4,64.4,59.5z
		"/>
	<path class="st31" d="M67,59.6c0,0-2.1,2.5-0.8,4.9c0,0,0.3,0.6,1.3,0.7h1.7c0,0-0.6-0.3-0.7-1.1c0,0,0.1-0.4,0.1-0.6
		c0-0.2-0.4-0.3-0.3-0.6c0,0,0.2-0.3,0.1-0.5c0,0-0.1-0.3,0.1-0.5c0,0,0.3-0.1,0.1-0.4c-0.1-0.3,0-0.3,0.2-0.4c0,0,0.2-0.3,0.2-0.6
		c0,0,0.1-0.3,0.4-0.2c0,0,0.3-0.1,0.2-0.3C69.6,60,68.4,59.6,67,59.6z"/>
	<ellipse class="st32" cx="71" cy="62" rx="0.2" ry="0.2"/>
	<ellipse class="st32" cx="72.7" cy="62.3" rx="0.1" ry="0.2"/>
	<ellipse class="st32" cx="72.1" cy="63.4" rx="0.2" ry="0.2"/>
	<circle class="st32" cx="71.8" cy="64.5" r="0.1"/>
	<circle class="st32" cx="70.4" cy="62.2" r="0.2"/>
	<ellipse class="st32" cx="71.6" cy="62.6" rx="0.1" ry="0.2"/>
	<ellipse class="st32" cx="71.1" cy="61.3" rx="0.2" ry="0.2"/>
	<ellipse class="st32" cx="70.4" cy="61" rx="0.3" ry="0.2"/>
	<ellipse class="st32" cx="72.7" cy="63.2" rx="0.2" ry="0.3"/>
	<path class="st32" d="M71.9,62.2l-0.3-0.4c0,0-0.1-0.1-0.1-0.2c0.1-0.1,0.1-0.2,0.2-0.2s0.3,0.1,0.3,0.1s-0.1,0.1-0.1,0.2
		C71.8,61.8,71.8,62.1,71.9,62.2z"/>
	<path class="st33" d="M72,60.1c0,0-0.3-0.4-0.3-0.7c0,0,0-1-0.4-1.4c0,0-1.8-1.9-2-2c0,0-0.1-0.4,0.1-0.3l0.5,0.4
		c0,0,0.4,0.4,0.5,0.4s0.5,0.3,0.6,0.3c0.1,0.1,0.3,0.4,0.3,0.4s0.1-0.1,0.1-0.2s-0.2-0.3-0.3-0.4c-0.1-0.1-0.7-0.6-0.7-0.6
		s-0.6-0.5-0.7-0.6c-0.1-0.1-0.5-0.4-0.5-0.5c0-0.1-0.1-0.3-0.1-0.4c0-0.1,0-0.3,0-0.4c0-0.1,0.1-0.3,0.1-0.3s0.1-0.3,0.2-0.3
		s0.4-0.3,0.5-0.4s0.3-0.2,0.4-0.3c0.1-0.1,0.8-0.3,0.8-0.4c0.1-0.1,0.6-0.4,0.7-0.4c0.1-0.1,0.6-0.3,0.6-0.3s0.5-0.3,0.6-0.4
		c0.1-0.1,0.4-0.6,0.4-0.6l0.3-0.6l0.1-0.8c0,0,0-1,0-1.1c0-0.1-0.1-1.2-0.1-1.2l0.3,0.8l0.1,1v1l-0.3,0.9c0,0-0.3,0.6-0.3,0.6
		S73.3,52,73.2,52c-0.1,0.1-0.9,0.8-0.9,0.8s-0.7,0.3-0.7,0.4s-0.7,0.4-0.8,0.4c-0.1,0-0.4,0.1-0.6,0.2c-0.1,0.1-0.6,0.4-0.6,0.4
		s0.3,0,0.4-0.1c0.1-0.1,0.5-0.2,0.6-0.2s0.2,0.1,0.2,0.2c0,0.1-0.1,0.1-0.1,0.3s-0.1,0.3-0.1,0.4c0.1,0.1,0,0.4,0,0.4
		s-0.2,0.2-0.1,0.3s0.6,0.8,0.6,0.8s0.4,0.5,0.5,0.5s0.3,0.3,0.4,0.4c0.1,0.1,0.3,0.4,0.3,0.5c0,0.1,0,0.7,0.1,0.8
		c0.1,0.1,0,0.8,0,0.8s-0.1,0.3-0.1,0.4C72.4,59.8,72,60.1,72,60.1z"/>
	<path class="st34" d="M70.7,60.2c0,0-1.2,0.3-1.5,1.3c-0.3,1-0.2,1.1-0.2,1.4c0.1,0.3,0,0.1,0,0.1s-0.1,0.5,0.1,0.9
		c0,0,0.4,1.4,0.9,1.4c0,0,1.3,0.4,1.8-0.1c0,0,1-0.1,1.2-1c0,0,0.4-0.6,0.4-1.3c0,0,0.2-1.8-0.8-2.2c0,0-0.3,0-0.3,0.4
		c0,0,0.1,0.7-0.4,0.4c0,0,0.3,0.8,0.1,0.6c-0.1-0.1-0.5-0.4-0.4-0.6c0,0,0.3-0.2,0.1-0.5c0,0-0.4-0.1,0-0.6
		C71.7,60.4,71.6,60.2,70.7,60.2z"/>
	<path class="st35" d="M69.9,60.6c0,0-0.9,0.7-0.8,1.1c0,0,0.1,0.2,0.3,0c0,0,0.1-0.3,0.2-0.4c0,0,0.3,0,0.3-0.1
		C70,61.2,70.2,60.7,69.9,60.6z"/>
	<path class="st35" d="M69.3,62.2c0,0-0.2,0.6-0.1,0.9c0.1,0.3,0.2,0.2,0.3,0c0,0-0.1-0.3,0.1-0.3c0,0,0.1-0.3,0-0.4
		C69.6,62.5,69.4,62.2,69.3,62.2z"/>
	<path class="st35" d="M72.4,60.8c0,0-0.2,0.6,0.3,0.8c0,0-0.1,0.5,0.1,0.6c0,0,0.3,0,0.1,0.6c0,0,0,0.5,0.2,0.6
		c0,0,0.4-0.2,0.2-1.1C73.3,62.2,72.9,60.8,72.4,60.8z"/>
	<ellipse class="st35" cx="71.2" cy="62.9" rx="1.4" ry="1.7"/>
	<ellipse class="st32" cx="70.7" cy="61.7" rx="0.2" ry="0.2"/>
	<ellipse class="st32" cx="72.4" cy="62" rx="0.1" ry="0.2"/>
	<ellipse class="st32" cx="71.8" cy="63.1" rx="0.2" ry="0.2"/>
	<circle class="st32" cx="71.5" cy="64.2" r="0.1"/>
	<circle class="st32" cx="70" cy="61.9" r="0.2"/>
	<ellipse class="st32" cx="71.3" cy="62.2" rx="0.1" ry="0.2"/>
	<ellipse class="st32" cx="70.8" cy="60.9" rx="0.2" ry="0.2"/>
	<ellipse class="st32" cx="70.1" cy="60.7" rx="0.3" ry="0.2"/>
	<ellipse class="st32" cx="72.4" cy="62.8" rx="0.2" ry="0.3"/>
	<path class="st32" d="M72,62.1l-0.3-0.4c0,0-0.1-0.1-0.1-0.2c0.1-0.1,0.1-0.2,0.2-0.2s0.3,0.1,0.3,0.1S72,61.6,72,61.6
		C72,61.6,72,62,72,62.1z"/>
	<ellipse class="st32" cx="70.6" cy="62.9" rx="0.2" ry="0.2"/>
	<ellipse class="st32" cx="72.4" cy="63.2" rx="0.1" ry="0.2"/>
	<ellipse class="st32" cx="71.7" cy="64.3" rx="0.2" ry="0.2"/>
	<circle class="st32" cx="71.4" cy="65.4" r="0.1"/>
	<circle class="st32" cx="70" cy="63.1" r="0.2"/>
	<ellipse class="st32" cx="71.2" cy="63.5" rx="0.1" ry="0.2"/>
	<ellipse class="st32" cx="70.7" cy="62.2" rx="0.2" ry="0.2"/>
	<ellipse class="st32" cx="70" cy="61.9" rx="0.3" ry="0.2"/>
	<ellipse class="st32" cx="72.4" cy="64.1" rx="0.2" ry="0.3"/>
	<path class="st32" d="M71.5,63.1l-0.3-0.4c0,0-0.1-0.1-0.1-0.2c0.1-0.1,0.1-0.2,0.2-0.2s0.3,0.1,0.3,0.1s-0.1,0.1-0.1,0.2
		C71.5,62.7,71.5,63,71.5,63.1z"/>
	<path class="st32" d="M69.8,61.3c0,0-0.2,0.2-0.1,0.4c0,0-0.1,0.1-0.3,0.1c0,0-0.1,0.3,0.1,0.3c0,0,0.3,0.3,0.3,0.4s0,0,0,0
		s0,0.1-0.2,0.2c0,0-0.2,0.2,0.1,0.3c0,0,0.5-0.1,0.4-0.4c0,0-0.2-0.2-0.2-0.4c0,0,0,0,0,0c0-0.3,0-0.3,0.2-0.3c0,0,0.2-0.3,0.1-0.5
		C70,61.4,70,61.2,69.8,61.3z"/>
	<path class="st32" d="M70.5,62.7c0,0-0.1,0.3-0.3,0.4c0,0-0.6,0.3-0.4,0.6c0,0,0.2,0,0.3-0.3c0,0,0.1-0.2,0.2-0.1
		c0,0,0.3,0.6,0.8,0.4c0,0-0.4-0.3-0.4-0.5c0,0,0,0,0,0C70.7,63,70.5,62.7,70.5,62.7z"/>
	<path class="st3" d="M7.7,76.1c0,0-1-1.3-0.9-4.9c0,0-0.5-2.4,1.7-5.6c0,0,2.9-4.5,8.1-5.6h0.1l-0.1,9.7c0,0,1.7,5.1,5.4,6.3
		L7.7,76.1z"/>
	<path d="M16.8,65.5v4.4c0,0,1.2,4.3,5.3,6.2l-6,0.1c0,0,0.9-3.4-0.4-6.2c0,0-1-2.2-3.2-3.5c0,0-0.1-0.3,0.2-0.2
		c0,0,0.8,0.6,1.1,0.4c0,0,0.6-0.4,0.1-1.5c0,0-0.1-0.3,0.2-0.3c0,0,1.9-0.1,2-0.8h0.9L16.8,65.5z"/>
	<path class="st36" d="M13.8,61.1c0,0,2.2,0.6,2,3.3c0,0-0.4,1.7-0.1,2.5l0.4-0.5c0,0,0.1-0.7,0.6-0.9l0.1-5.4
		C16.9,60,15.5,60.2,13.8,61.1z"/>
</g>
</svg>
