<?xml version="1.0" encoding="utf-8"?>
<!-- Generator: Adobe Illustrator 23.0.0, SVG Export Plug-In . SVG Version: 6.00 Build 0)  -->
<svg version="1.1" id="Capa_1" xmlns="http://www.w3.org/2000/svg" xmlns:xlink="http://www.w3.org/1999/xlink" x="0px" y="0px"
	 viewBox="0 0 480 170" style="enable-background:new 0 0 480 170;" xml:space="preserve">
<style type="text/css">
	.st0{fill:#DA4167;}
	.st1{fill:#FFFFFF;}
	.st2{fill:none;}
</style>
<g>
	<path class="st0" d="M238.2,82c0,0,0.5-7.5-3.4-10.1c0,0-2.9-2.4-7.8-2.4c0,0-8.9-0.8-8.9-9.1c0,0,1.4-26-7-39.8
		c0,0,9.8,2.7,13.6,9.6c0,0-2.6,0.8-4.1-0.9c0,0,0.8,15.1,5.2,25.2c0,0,2.6,7.7,9.3-0.3c0,0,5.4-12,3.1-26.7l-4.6,2.7l7-23.7
		l7.9,23.4l-5.1-2.4c0,0-1.7,22,5.1,28.3c0,0,6.8,5.6,9.1-3.7c0,0,4.1-15.1,4-21.5l-5.4-0.1c0,0,5.6-8,13.7-9.3c0,0-6,9.7-6.6,28.2
		c0,0-0.8,8.2,0,12.3c0,0,0.5,6.4-7.9,7.5c0,0-12.8-1.5-12.1,12.8L238.2,82L238.2,82z"/>
	<path class="st1" d="M8.1,110.4c0,0,60.3-28.4,229.8-28.4c0,0,171.6-0.4,234.9,28.4c0,0-85.3-21.2-234.9-21.2
		C237.9,89.2,113.3,87.7,8.1,110.4z"/>
	<path class="st1" d="M65.2,148.7l-4.3,7.9c-1.8-0.1-3.2-0.2-4-0.2c-1,0-2.4,0.1-4.1,0.2s-3.1,0.2-4,0.2c-3.9,0-7.3-0.6-10.3-1.8
		c-3-1.2-5.5-2.8-7.4-4.9c-1.9-2.1-3.4-4.3-4.3-6.8c-0.9-2.5-1.4-5-1.4-7.5c0-3.3,0.5-6.2,1.7-9c1.1-2.7,2.7-5.1,4.7-7.1
		s4.4-3.5,7.1-4.5c2.7-1.1,5.6-1.6,8.7-1.6c0.8,0,1.3,0,1.5,0s0.7,0,1.4,0.1c0.7,0,1.4,0.1,2.2,0.1c2.6,0.2,4.6,0.3,6,0.3
		c3.1,0,5.1-0.1,6-0.3l0.3,9.7h-0.4l-1.9-6.4c-0.6-0.1-1.6-0.3-3-0.6s-2.9-0.4-4.3-0.6s-2.8-0.2-4.4-0.2c-4,0-7.3,0.8-10.2,2.4
		c-2.8,1.6-4.9,3.8-6.3,6.7c-1.4,2.9-2.1,6.3-2.1,10c0,2.9,0.5,5.6,1.5,8.1s2.4,4.6,4.3,6.3c1.8,1.7,3.9,3.1,6.2,4
		c2.3,0.9,4.8,1.4,7.4,1.4c2.6,0,5-0.4,7.2-1.3s4.3-2.5,6-4.8L65.2,148.7z M52.2,114.4h-3.4c-3.3,0-6.4,0.6-9.2,1.7
		c-2.8,1.1-5.2,2.6-7.1,4.6s-3.4,4.2-4.4,6.8c-1,2.6-1.5,5.3-1.5,8.3c0,2.7,0.5,5.3,1.5,7.7c1,2.4,2.5,4.6,4.5,6.5
		c2,1.9,4.4,3.4,7.2,4.5c2.8,1.1,5.9,1.6,9.3,1.6c1.5,0,2.5,0,2.9-0.1v-0.4c-3.8,0.1-7.2-0.4-10.2-1.5c-3-1.1-5.5-2.6-7.4-4.6
		s-3.4-4.1-4.3-6.6c-1-2.5-1.4-5-1.4-7.5c0-2.5,0.4-5,1.2-7.4s2.1-4.6,3.8-6.7s3.9-3.6,6.7-4.8c2.7-1.2,5.9-1.8,9.6-1.8h2V114.4z"/>
	<path class="st1" d="M95,113.9l12.5,29.8c1.6,3.9,3.5,7.7,5.7,11.6l4.8,1v0.3H97.6v-0.3l7.8-1c-0.3-1.9-0.8-4-1.6-6.2
		s-1.6-4.2-2.6-5.8H83.2c-0.8,1.9-1.4,3.5-1.9,4.8s-0.9,2.5-1.3,3.9c-0.4,1.3-0.7,2.5-0.8,3.4l7.6,1v0.3H70.6v-0.3l5.3-1
		c1.3-2.2,2.5-4.7,3.5-7.4l13.3-33.9L95,113.9L95,113.9z M92,122c-0.5,1-1.2,2.5-2.1,4.5c-0.8,2-1.6,3.8-2.3,5.5s-1.4,3.5-2.2,5.5
		c-0.8,1.9-1.3,3.2-1.5,3.8c1.1,0.1,2.4,0.3,4,0.3c1.5,0.1,2.9,0.1,4.3,0.1c3.4,0,6.1-0.1,8.3-0.4c-0.7-2.2-2-5.3-3.7-9.3
		C95,128,93.4,124.7,92,122z M92.4,119.6l14.9,35.8h1.9l-15.9-38.2L92.4,119.6z"/>
	<path class="st1" d="M123.2,146.4l2.2,7.1c1.1,0.5,2.4,0.9,3.9,1.2c1.5,0.3,2.7,0.4,3.8,0.4c1.4,0,2.8-0.3,4-0.8
		c1.2-0.5,2.2-1.1,2.9-1.9c0.8-0.8,1.3-1.6,1.7-2.6s0.6-1.9,0.6-2.8c0-1.9-0.6-3.5-1.9-4.8s-3.4-3-6.5-5c-3-2-5.2-3.7-6.6-5.1
		c-1.2-1.2-2.1-2.4-2.6-3.6c-0.6-1.2-0.9-2.6-0.9-4.1c0-1.7,0.4-3.3,1.3-4.9c0.9-1.6,2.3-3,4.2-4.1c1.9-1.1,4.2-1.6,6.9-1.6
		c1.3,0,2.6,0.1,4,0.2c1.4,0.1,2.4,0.2,2.9,0.2c0.5,0,0.9,0,1.3,0s0.7,0,1-0.1c0.2,0,0.5-0.1,0.8-0.1l0.2,9.8H146l-1.8-6.7
		c-2.7-1.2-5-1.8-7-1.8c-1.6,0-3.1,0.3-4.4,0.9c-1.3,0.6-2.3,1.5-3.1,2.6c-0.7,1.1-1.1,2.3-1.1,3.7c0,1.4,0.5,2.7,1.5,3.9
		s2.3,2.3,4,3.5s3.5,2.3,5.5,3.6s3.5,2.5,4.7,3.7c2.3,2.3,3.4,4.9,3.4,7.9c0,1.7-0.4,3.4-1.3,5.2c-0.9,1.8-2.4,3.3-4.5,4.6
		c-2.1,1.3-4.8,1.9-8.1,1.9c-1.2,0-2.6-0.1-4.3-0.2c-1.7-0.1-2.9-0.2-3.7-0.2c-0.4,0-0.7,0-0.8,0s-0.5,0.1-0.9,0.1
		c-0.4,0-0.7,0.1-0.8,0.1l-0.5-10.1L123.2,146.4L123.2,146.4z M137.3,114.4h-0.9c-2.1,0-4.1,0.4-5.9,1.3c-1.8,0.8-3.2,2.1-4.2,3.6
		s-1.6,3.3-1.6,5.3c0,2.4,1.1,4.7,3.2,6.9c0.9,0.9,1.8,1.7,2.6,2.3c0.8,0.6,2.1,1.5,3.7,2.6c1.6,1.1,3,2.1,4,2.8s1.8,1.4,2.4,2.1
		c1.7,1.7,2.6,3.7,2.6,5.8c0,1.5-0.4,2.9-1.2,4.2s-1.9,2.5-3.5,3.3c-1.5,0.9-3.3,1.3-5.3,1.3v0.3c2.3,0.1,4.4-0.3,6.3-1.2
		c1.8-0.9,3.2-2.1,4.2-3.6c1-1.5,1.5-3,1.5-4.6c0-1.4-0.2-2.6-0.7-3.7c-0.4-1.1-1.3-2.3-2.4-3.4c-0.7-0.7-1.9-1.6-3.6-2.8
		s-3.5-2.4-5.3-3.6s-3.1-2.2-3.9-3c-2-2-3-4.2-3-6.6c0-2.1,0.9-4.1,2.7-5.9c1.8-1.8,4.6-2.8,8.3-2.9L137.3,114.4L137.3,114.4z"/>
	<path class="st1" d="M174.9,156.5h-21.8v-0.3l7-1.1c0.3-2.4,0.6-5.3,0.7-8.7c0.2-3.4,0.2-6.7,0.2-9.9v-4.8c0-6.6-0.3-11.9-0.9-16.1
		l-7.1-1v-0.3h21.8v0.3l-7.2,1c-0.2,1.9-0.4,3.6-0.5,5.1c-0.1,1.5-0.2,3.3-0.3,5.5s-0.1,4.1-0.1,6v6.4c0,1.2,0,3.1,0.1,5.8
		c0.1,2.7,0.2,4.9,0.4,6.8c0.1,1.8,0.3,3.2,0.4,4.1l7.1,1L174.9,156.5L174.9,156.5z M161.9,115.5v39.9h2v-39.9H161.9z"/>
	<path class="st1" d="M178.5,114.6v-0.3h14.6c1,1.3,2.2,2.9,3.7,4.7c1.5,1.8,2.9,3.4,4.1,4.8l12.9,14.4c1.7,1.9,3,3.3,4,4.3
		c0.9,1,2.2,2.3,3.7,3.7c0.1-1.3,0.2-2.6,0.2-3.7s0.1-2.2,0.1-3.3v-12.4c0-4.5-0.2-8.2-0.7-11.1l-7-1.1v-0.3h17.1v0.3l-7,1.1
		c-0.4,2.7-0.6,6.1-0.6,10.3v31.6h-0.3c-2.9-3.7-5.9-7.2-8.7-10.5l-17.6-19.7c-2.6-2.8-4.8-5-6.7-6.7c-0.3,2.6-0.4,5.1-0.4,7.3v18.2
		c0,2.4,0.2,5.4,0.6,8.7l7.3,1.1v0.3h-17.5v-0.3l7.1-1c0.2-1.4,0.4-3.4,0.5-5.9c0.1-2.6,0.1-4.8,0.1-6.8v-14.1c0-1.7,0-3.3-0.1-5
		s-0.2-3.3-0.3-4.9l-3.8-2.8L178.5,114.6z M187.2,115.4l34.8,38.7v-2.7l-32.4-36C189.6,115.4,187.2,115.4,187.2,115.4z"/>
	<path class="st1" d="M260,113.7c4.1,0,7.6,0.7,10.6,2.1c3,1.4,5.5,3.2,7.4,5.4c1.9,2.2,3.3,4.6,4.2,7c0.9,2.5,1.3,4.9,1.3,7.2
		c0,2.6-0.5,5.2-1.5,7.7c-1,2.5-2.5,4.8-4.5,6.9c-2,2.1-4.4,3.8-7.3,5s-6.1,1.9-9.7,1.9c-5.2,0-9.5-1.1-13.1-3.4
		c-3.6-2.2-6.2-5-7.9-8.3c-1.7-3.3-2.6-6.5-2.6-9.7c0-2.8,0.5-5.5,1.6-8.1c1.1-2.6,2.7-4.9,4.7-7c2.1-2.1,4.5-3.7,7.4-4.8
		C253.5,114.3,256.6,113.7,260,113.7z M258.8,114.8v-0.3c-2.7,0-5.3,0.6-7.9,1.7c-2.6,1.1-4.8,2.7-6.7,4.6s-3.4,4.2-4.5,6.6
		s-1.6,5.1-1.6,7.8c0,3.3,0.9,6.6,2.7,9.8c1.8,3.2,4.3,5.7,7.5,7.7c3.2,2,6.7,3,10.6,3.1v-0.3c-3.7-0.3-7-1.5-9.9-3.5
		s-5-4.5-6.5-7.4c-1.5-3-2.2-6-2.2-9.2c0-2.6,0.4-5.1,1.3-7.5c0.9-2.4,2.1-4.5,3.8-6.4c1.6-1.9,3.6-3.4,5.9-4.6
		C253.5,115.8,256,115.1,258.8,114.8z M260.2,115.8c-3,0-5.7,0.8-8.3,2.3c-2.5,1.6-4.5,3.8-6,6.7s-2.2,6.4-2.2,10.4
		c0,4.3,0.8,7.9,2.4,10.9c1.6,3,3.7,5.2,6.3,6.6s5.2,2.1,7.9,2.1c2.2,0,4.3-0.4,6.3-1.3c2-0.8,3.8-2.1,5.3-3.7s2.8-3.6,3.6-6
		s1.3-5,1.3-7.9c0-4-0.5-7.2-1.4-9.6c-0.9-2.4-2.3-4.5-4.1-6.3c-1.5-1.5-3.2-2.6-5.2-3.3C264.2,116.1,262.2,115.8,260.2,115.8z
		 M261.6,114.6v0.3c1.9,0.1,3.7,0.6,5.6,1.3s3.6,1.9,5.3,3.5c1.6,1.6,3,3.7,4,6.3s1.5,5.8,1.5,9.6c0,2.4-0.3,4.8-0.9,7
		s-1.5,4.3-2.8,6.2c-1.3,1.9-3,3.4-5.1,4.7s-4.6,2-7.5,2.3v0.3c2.5-0.1,4.8-0.6,7-1.6s4.2-2.3,5.9-4.1c1.7-1.8,3.1-3.9,4.1-6.4
		s1.5-5.4,1.5-8.5c0-3.4-0.5-6.4-1.6-9s-2.5-4.8-4.2-6.5s-3.8-3-6-3.9C266.2,115.1,264,114.6,261.6,114.6z"/>
	<path class="st0" d="M291.5,123.8l1.3-10c1.7,0.2,2.8,0.3,3.2,0.3c1.1,0.1,2.1,0.2,3,0.2h27.4v1.2l-18.7,25.2
		c-1.2,1.7-2.7,3.8-4.4,6.2c-1.7,2.5-3,4.6-4,6.4c1,0.3,2.7,0.6,5.1,0.9s4.5,0.5,6,0.5h4.1c0.6,0,1.9-0.1,3.7-0.2s3.3-0.3,4.4-0.6
		l3-7.4h0.4l-1.5,10h-34.5v-1.1l19.4-26.2c3-4,5.6-7.9,7.8-11.6c-0.7-0.3-2.1-0.6-4.2-0.9S309,116,307,116h-4.5
		c-1,0-2.5,0.1-4.3,0.3s-3.1,0.3-3.8,0.5l-2.5,7L291.5,123.8L291.5,123.8z M320.6,115.5l-29.6,39.8h2.3l29.5-39.8
		C322.9,115.5,320.6,115.5,320.6,115.5z"/>
	<path class="st0" d="M331.3,114.6v-0.3h30.7l0.7,9h-0.5l-2.1-7c-1.6-0.1-3.5-0.2-5.5-0.2c-3.7,0-6.7,0.3-9,0.8
		c-0.4,3.1-0.6,6.7-0.6,10.7c0,2.5,0.1,4.5,0.2,6.1c3,0.2,5,0.3,5.8,0.3c2.2,0,4.4-0.1,6.7-0.4l1.3-4.9h0.5v12.3h-0.5l-1.4-5.2
		c-1.7-0.2-3.5-0.3-5.5-0.3c-2.5,0-4.8,0.1-6.9,0.4c-0.3,2.2-0.3,4.4-0.2,6.5c0,2.7,0.1,5,0.1,6.8s0.2,3.3,0.3,4.6
		c2.3,0.7,5.4,1.1,9.2,1.1c2.2,0,4-0.1,5.5-0.3l2.3-6.9h0.4l-0.6,9h-31v-0.3l6.9-1c0.1-0.8,0.3-2,0.4-3.6s0.2-3.4,0.3-5.4
		c0.1-2,0.2-3.7,0.2-5c0-1.4,0.1-2.5,0.1-3.6v-7.3c0-0.9,0-2.2-0.1-3.9c-0.1-1.7-0.1-3.5-0.3-5.3c-0.1-1.8-0.3-3.7-0.5-5.5
		L331.3,114.6z M340,115.5v39.9h2v-39.9H340z"/>
	<path class="st0" d="M375.3,144.3v-16.1c0-3.6-0.2-7.8-0.7-12.7l-6-0.9v-0.3h21v0.3l-7.6,0.9c-0.2,1.3-0.4,3-0.5,4.8
		c-0.1,1.9-0.2,3.9-0.3,6c-0.1,2.1-0.1,3.8-0.1,5.1v11.8c0,2.8,0.6,5.1,1.7,6.8c1.1,1.7,2.6,2.9,4.5,3.6s3.9,1.1,6.2,1.1
		c3.9,0,6.9-1,9.1-2.9s3.3-5.1,3.3-9.5v-12.3c0-2.2-0.1-4.8-0.2-7.8c-0.1-3-0.4-5.3-0.6-6.8l-7.6-0.9v-0.3h20.9v0.3l-5.9,0.9
		c-0.3,1.3-0.5,3.3-0.6,6.2c-0.1,2.9-0.2,5.3-0.2,7.3v14c0,2.2-0.3,4-0.8,5.5s-1.3,2.8-2.4,3.9c-0.8,0.8-1.5,1.4-2.4,1.9
		c-0.8,0.5-1.9,1-3.1,1.4c-1.3,0.4-2.6,0.7-4.1,0.8s-3.4,0.3-5.6,0.3c-3.6,0-6.8-0.4-9.4-1.2s-4.8-2.1-6.3-4
		C376.1,149.8,375.3,147.3,375.3,144.3z M391.7,156.2v-0.4c-2.7-0.1-5.1-0.7-7.1-1.6s-3.6-2.3-4.8-4.1s-1.7-4.1-1.7-6.7v-27.9h-2
		v28.9c0,3.6,1.2,6.4,3.7,8.4S386.3,155.9,391.7,156.2z M395.5,155.8v0.4c2.3-0.1,4.2-0.5,5.9-1.1c1.6-0.6,3-1.4,4.1-2.5
		c1.1-1.1,1.9-2.4,2.4-4.1c0.5-1.6,0.8-3.5,0.8-5.7v-27.3h-2v27.3c0,3.8-0.9,6.9-2.6,9.1C402.3,154,399.4,155.4,395.5,155.8z"/>
	<path class="st0" d="M423.9,146.4l2.2,7.1c1.1,0.5,2.4,0.9,3.9,1.2c1.5,0.3,2.7,0.4,3.8,0.4c1.4,0,2.8-0.3,4-0.8
		c1.2-0.5,2.2-1.1,2.9-1.9c0.8-0.8,1.3-1.6,1.7-2.6s0.6-1.9,0.6-2.8c0-1.9-0.6-3.5-1.9-4.8c-1.3-1.3-3.4-3-6.5-5
		c-3-2-5.2-3.7-6.6-5.1c-1.2-1.2-2-2.4-2.6-3.6s-0.9-2.6-0.9-4.1c0-1.7,0.5-3.3,1.4-4.9c0.9-1.6,2.3-3,4.2-4.1
		c1.9-1.1,4.2-1.6,6.9-1.6c1.3,0,2.6,0.1,4,0.2c1.4,0.1,2.4,0.2,2.9,0.2c0.5,0,0.9,0,1.3,0s0.7,0,1-0.1c0.2,0,0.5-0.1,0.8-0.1
		l0.2,9.8h-0.4l-1.8-6.7c-2.7-1.2-5-1.8-7-1.8c-1.6,0-3.1,0.3-4.5,0.9c-1.3,0.6-2.3,1.5-3.1,2.6c-0.7,1.1-1.1,2.3-1.1,3.7
		c0,1.4,0.5,2.7,1.5,3.9s2.3,2.3,4,3.5c1.7,1.1,3.5,2.3,5.5,3.6s3.5,2.5,4.7,3.7c2.3,2.3,3.4,4.9,3.4,7.9c0,1.7-0.4,3.4-1.3,5.2
		c-0.9,1.8-2.4,3.3-4.5,4.6c-2.1,1.3-4.8,1.9-8.1,1.9c-1.2,0-2.6-0.1-4.3-0.2c-1.7-0.1-2.9-0.2-3.7-0.2c-0.4,0-0.6,0-0.9,0
		s-0.5,0.1-0.9,0.1c-0.4,0-0.7,0.1-0.8,0.1l-0.5-10.1L423.9,146.4L423.9,146.4z M438,114.4h-0.9c-2.1,0-4.1,0.4-5.9,1.3
		s-3.2,2.1-4.2,3.6s-1.6,3.3-1.6,5.3c0,2.4,1.1,4.7,3.2,6.9c0.9,0.9,1.8,1.7,2.6,2.3c0.8,0.6,2,1.5,3.7,2.6c1.6,1.1,3,2.1,4,2.8
		s1.8,1.4,2.4,2.1c1.7,1.7,2.6,3.7,2.6,5.8c0,1.5-0.4,2.9-1.2,4.2c-0.8,1.4-2,2.5-3.5,3.3c-1.5,0.9-3.3,1.3-5.3,1.3v0.3
		c2.3,0.1,4.4-0.3,6.3-1.2c1.8-0.9,3.2-2.1,4.2-3.6c1-1.5,1.5-3,1.5-4.6c0-1.4-0.2-2.6-0.7-3.7c-0.4-1.1-1.3-2.3-2.4-3.4
		c-0.7-0.7-1.9-1.6-3.6-2.8s-3.5-2.4-5.3-3.6s-3.1-2.2-3.9-3c-2-2-3-4.2-3-6.6c0-2.1,0.9-4.1,2.8-5.9c1.8-1.8,4.6-2.8,8.3-2.9
		L438,114.4L438,114.4z"/>
	<polygon class="st2" points="138.8,142.3 134.2,142.3 134.2,142.3 	"/>
</g>
<rect x="42.3" y="-162.1" class="st0" width="188.4" height="90.4"/>
</svg>
