<?xml version="1.0" encoding="utf-8"?>
<!-- Generator: Adobe Illustrator 24.1.1, SVG Export Plug-In . SVG Version: 6.00 Build 0)  -->
<svg version="1.1" id="Capa_1" xmlns="http://www.w3.org/2000/svg" xmlns:xlink="http://www.w3.org/1999/xlink" x="0px" y="0px"
	 viewBox="0 0 583.2 288" style="enable-background:new 0 0 583.2 288;" xml:space="preserve">
<style type="text/css">
	.st0{fill:#FFFFFF;}
	.st1{enable-background:new    ;}
	.st2{fill:#E6007E;}
</style>
<path class="st0" d="M19.4,110.1l0-0.2c-2-23.6,17.9-44,46.8-46.4c19.5-1.6,32.7,4.3,42,13.5L89.4,91.8c-5.9-5.3-12.5-8.5-21.7-7.7
	c-13.4,1.1-22,11.5-21,23.3l0,0.2c1,12.2,11.2,20.9,24.6,19.7c10-0.8,15.5-5.3,20.7-11.7L113,126c-8.1,11.3-19.6,20.1-40.8,21.9
	C44.9,150.2,21.4,134.3,19.4,110.1z"/>
<path class="st0" d="M151.1,57.4l25.5-2.1l47.5,78.2l-28.4,2.4l-8.2-13.9l-36.9,3.1l-5.6,15l-27.9,2.3L151.1,57.4z M178.5,105.2
	L165.9,83l-8.9,24L178.5,105.2z"/>
<path class="st0" d="M223.8,121.4l13.5-16.2c10,5.6,20.8,8.1,31.8,7.1c7.1-0.6,10.7-3,10.5-6.5l0-0.2c-0.3-3.4-3.6-4.9-16.8-6.4
	c-20.7-2.2-36.8-5.8-38.2-22.5l0-0.2c-1.3-15.1,11.9-27.1,34.8-29c16.2-1.4,29.3,1.3,40.2,7.5l-11.9,17c-9.2-4.5-19-6.5-27.4-5.7
	c-6.4,0.5-9.4,3.1-9.1,6l0,0.2c0.3,3.7,3.7,5.1,17.2,6.5c22.3,2.2,36.5,7.1,37.8,22.3l0,0.2c1.4,16.6-13.2,27.7-36.4,29.6
	C252.8,132.5,236.3,129.3,223.8,121.4z"/>
<path class="st0" d="M314.8,44.3l26.6-2.2l6.8,81.1l-26.6,2.2L314.8,44.3z"/>
<path class="st0" d="M358.9,40.5l24.7-2.1L426.6,78L423,35.2l26.2-2.2L456,114l-23.2,1.9l-44.6-41l3.7,44.5l-26.2,2.2L358.9,40.5z"
	/>
<path class="st0" d="M466.2,72.6l0-0.2c-2-23.3,18.6-44,48.1-46.5c29.5-2.5,52.9,14.3,54.9,37.6l0,0.2c2,23.3-18.6,44-48.1,46.5
	C491.6,112.7,468.2,95.9,466.2,72.6z M542.1,66.2l0-0.2c-1-11.7-11.8-21-26.4-19.8c-14.5,1.2-23.3,12-22.3,23.7l0,0.2
	c1,11.7,11.8,21.1,26.3,19.8C534.3,88.7,543.1,77.9,542.1,66.2z"/>
<g class="st1">
	<path class="st2" d="M153,226c2.9-0.2,6.4-0.4,10.5-0.7c4.1-0.3,8.4-0.5,13-0.7c4.6-0.2,9.2-0.3,13.8-0.4c4.6-0.1,8.8-0.1,12.8,0.1
		c3.9,0.1,7.3,0.5,10.2,1.1c2.9,0.6,4.9,1.3,6.1,2.2c0.7,0.6,0.9,1.2,0.3,1.8c-0.5,0.5-1.2,1.1-2,1.7c-0.3,0.3-1.3,0.6-3.2,0.8
		c-1.9,0.3-3.9,0.6-6.1,0.8c-2.2,0.3-4.3,0.5-6.2,0.7c-1.9,0.2-3,0.4-3.3,0.5c-0.3,0.3,0.3,0.5,1.8,0.6c1.5,0.1,3.2,0.2,5.1,0.3
		c2,0.1,3.8,0.2,5.5,0.3c1.7,0.1,2.7,0.2,3,0.3c1.2,0.6,2.2,1.4,3,2.2c0.8,0.9,1.4,2,1.8,3.3c0.3,0.3,0.2,0.7-0.3,1.3
		c0,0.1-0.3,0.1-1.1-0.1c-1.9-0.8-3.9-1.3-5.9-1.3c-2.1,0-4.2,0.2-6.5,0.4c-2.6,0.5-4.1,0.9-4.4,1.2c-0.3,0.4,0,0.8,0.9,1.3
		c0.9,0.5,2.3,1,4.2,1.5c1.8,0.5,3.6,1.1,5.4,1.8c1.4,0.6,2.7,1.2,3.8,1.8c1.1,0.6,1.8,1.2,2,1.6c0.2,0.5-0.1,0.8-1,1
		c-0.9,0.2-2.5,0.2-4.7-0.1c-1.8-0.3-5.1-0.3-9.7,0c-4.7,0.3-9.9,0.8-15.8,1.4c-5.9,0.6-12,1.4-18.5,2.2c-6.4,0.9-12.4,1.7-17.8,2.6
		c-5.5,0.9-10,1.8-13.7,2.7c-3.7,1-5.7,1.7-6.1,2.3c-3.1,0.9-5.8,2.3-8.1,4.2c-2.2,1.9-3.8,4.7-4.7,8.4l-0.6,0.7l-0.5-1
		c0-0.7-0.1-1.3,0-1.7c0-0.4,0.2-1,0.4-1.7c0-0.1,0-0.3,0.1-0.4c0.1-0.1,0.1-0.3,0.1-0.4c-0.6-0.5-1-0.8-1.1-0.8
		c-1.1,0.4-2.4,0.9-3.9,1.7c-0.8,0.5-1.6,0.8-2.5,1c-0.9,0.2-1.8,0-2.7-0.7c-0.4-0.3-0.9-0.5-1.3-0.7c-0.4-0.2-0.7-0.7-0.7-1.2
		c-0.4-2.2-1-4.4-1.7-6.7c-0.7-2.3-0.9-4.6-0.5-7c0.6-2,1.3-4,2.3-6c1-2,2.3-3.6,4.1-4.9c1-1.5,2-2.9,2.8-4.3
		c0.9-1.4,1.7-2.9,2.4-4.5c7.6-15,15.5-29.7,23.7-44.1c8.2-14.4,16.9-28.4,26-42.2c1.7-2.1,3.3-4.2,5-6.5c1.7-2.3,3.4-4.6,5.2-6.9
		c0-0.3,0-0.6,0.1-1.1c-0.1-0.1-0.4-0.2-0.6-0.2c-0.3,0-0.5,0-0.6,0c-2.4,1.3-4.8,2.5-7.2,3.7c-2.4,1.2-4.8,2.2-7.2,3.1
		c-1.9,0.8-3.5,1.5-4.8,2c-1.3,0.5-2.6,1-3.9,1.5s-2.6,1-4.1,1.5c-1.4,0.5-3.1,1.1-5,1.8c-6.3,1.7-13,2-20.2,1
		c-0.7-0.4-1.6-0.7-2.5-1.1c-0.9-0.4-1.8-0.6-2.5-0.9c-1.2-0.5-2.2-1.7-3.3-3.5c-1-1.9-1.7-3.5-2.1-4.9c0-0.6,0.4-1.1,1.3-1.7
		c0.9-0.6,2-1.1,3.2-1.6c1.2-0.5,2.3-1,3.3-1.5c1-0.5,1.5-1.1,1.4-1.8c-0.1,0-0.8,0.2-1.9,0.7c-1.2,0.4-2.4,0.7-3.6,0.9
		c-1.2,0.2-2.3-0.1-3.1-0.6c-0.8-0.6-0.9-1.9-0.2-3.9c0.3-1,0.8-1.8,1.3-2.5c0.5-0.7,1.4-1.2,2.6-1.5c4.9-1,9.9-2.1,14.7-3.1
		c4.9-1,9.7-2.1,14.5-3.1c2.9-0.6,5.6-1.1,8.2-1.5c2.6-0.4,5-0.7,7.4-1c2.3-0.3,4.8-0.6,7.3-0.9c2.5-0.3,5.2-0.8,8.1-1.4
		c3.8-0.8,7.7-1.6,11.4-2.4c3.8-0.7,7.7-1.5,11.7-2.2c1.8-0.3,3.5-0.7,5-1.2c1.6-0.5,2.9-1.6,3.9-3.2c0.2-0.4,0.5-0.8,0.7-1
		c0.2-0.2,0.4-0.6,0.7-1c1.4-1.4,2.5-2,3.3-1.8c0.8,0.2,1.7,1.2,2.8,3.3c1.2,1.5,2.4,2.1,3.5,2.1c0.6,0,1.1,0.1,1.7,0.3
		c-0.1,0.3-0.2,0.6-0.3,0.9c-0.1,0.3-0.2,0.6-0.4,1.1c-0.4,0.6-0.8,1.1-1.1,1.5s-0.7,1-0.9,1.7c-1.1,4.1-2.7,7.9-4.7,11.3
		c-2,3.4-4.1,6.6-6.2,9.5c-4.8,6.6-9.5,13.1-14,19.4c-4.5,6.3-9.1,12.6-13.7,18.7c-5.6,8.3-11.1,16.4-16.7,24.2
		c-5.6,7.8-10.7,16-15.4,24.7c-0.5,0.6-1,1.3-1.5,2.1c-0.5,0.8-0.6,1.5-0.3,2.2c0.3,0.8,0.9,1.1,1.7,0.7c0.8-0.3,1.6-0.5,2.5-0.6
		c0.8,0.1,1.7,0.1,2.6,0C151.5,226.1,152.3,226,153,226z M133.8,209.1c-0.2-0.3-0.2-0.5-0.3-0.6c-0.1,0.1-0.3,0.2-0.5,0.1
		c-0.2-0.1-0.3,0-0.3,0.1c-1.4,1.9-2.6,3.9-3.7,5.9c-1,2-2.2,4-3.5,5.9c-1.4,2.5-2.8,5-4.2,7.5c-1.4,2.5-2.8,5-4.2,7.5
		c-0.1,0.1-0.2,0.3-0.2,0.4c0,0.1,0,0.4-0.2,0.6c0.3,0,0.5,0,0.5,0.1c0.1,0.1,0.2,0.1,0.3,0.1c1.5-0.9,2.8-1.8,4.1-2.6
		c1.3-0.8,2.2-2,2.8-3.7c1.3-3.3,2.7-6.5,4-9.5c1.4-3,2.7-6.1,4.1-9.3c0.1-0.6,0.2-1.1,0.4-1.5C133.4,209.8,133.6,209.4,133.8,209.1
		z M131.8,225.4c-0.1,0-0.3,0-0.4-0.1c-0.1-0.1-0.3-0.1-0.4-0.1c-0.2,0.7-0.5,1.3-0.7,1.8c-0.2,0.5-0.5,1-0.7,1.4
		c-0.3,0.3-0.3,0.6-0.2,1c0.1,0.3,0.1,0.7,0.2,0.9c0.5-0.2,0.9-0.5,1-0.9C131.1,228.5,131.5,227.2,131.8,225.4z M142.6,205.4
		c-0.6,0.9-1.1,1.8-1.5,2.8c0.1,0,0.2,0,0.2,0.1c0,0.1,0.1,0.1,0.2,0.1c0,0.1,0.1,0.2,0.2,0.2c0.4-0.7,0.6-1.3,0.8-1.6
		c0.2-0.4,0.4-0.7,0.7-1L142.6,205.4z M184,132.6c0.5-0.5,1-1.1,1.5-2l-0.1-1c-0.3,0.3-0.5,0.5-0.6,0.5c-0.1,0-0.3,0.2-0.6,0.5
		c-0.3,0.2-0.5,0.4-0.6,0.7c-0.1,0.3-0.3,0.6-0.6,0.9c0.1,0.1,0.3,0.2,0.4,0.2C183.7,132.2,183.8,132.4,184,132.6z"/>
	<path class="st2" d="M292.3,135.4c-2.5,0.2-5,0.4-7.5,0.6s-5,0.3-7.5,0.2c-1.3,0.1-2.2,0.4-2.9,0.8c-0.7,0.5-1.2,1.4-1.5,2.8
		c-1.3,4-2.5,7.9-3.7,11.8c-1.2,3.9-2.4,7.7-3.7,11.4c-0.7,2.3-1.2,4.4-1.5,6.2c-0.6,1.9-0.7,2.9-0.5,3.2s1.2,0.3,2.8,0.2l4.2-0.3
		l25.7-1.1c2.1-0.1,4-0.1,5.8,0.1c1.8,0.2,3.6,0.6,5.4,1.2c0.3,0.1,0.5,0.2,0.5,0.3c0.1,0.1,0.3,0.2,0.5,0.3
		c-0.3,0.2-0.4,0.3-0.4,0.4c0,0.1-0.1,0.2-0.4,0.2c-0.8,0.3-1.6,0.7-2.3,1.2c-0.7,0.5-1.5,0.9-2.3,1.2l-0.8,0.5
		c0.6,0.4,1,0.5,1.3,0.5c1,0.1,2,0.1,3.1,0.1c1.1,0,2.2,0,3.4,0.1c0.9,0.2,1.7,0.6,2.6,1c-0.5,0.2-1.3,0.3-2.3,0.4
		c-1.7,0.1-3.2,0.2-4.6,0.3c-1.4,0.1-2.8,0.3-4.4,0.5c-0.6,0-0.8,0.4-0.8,1c0.1,0.8,0.4,1.1,0.9,1.1l4.6-0.3c0.3,0,0.5,0,0.6,0.2
		c0.1,0.1,0.3,0.2,0.4,0.2c0,0.7-0.1,1.1-0.5,1.3c-0.4,0.2-0.8,0.3-1.1,0.5c-0.3,0.2-0.6,0.3-0.9,0.3c-1.1,0.5-2.1,1.1-3,1.7
		c-0.9,0.6-1.3,1.8-1.2,3.6c-0.1,1-0.5,1.7-1.2,2.2c-0.7,0.5-1.6,0.8-2.5,1c-1.1,0.2-2.2,0.4-3.3,0.4c-1.1,0.1-2.2,0.2-3.3,0.2
		c-4.9,0.1-9.8,0.1-14.9,0c-5-0.1-10-0.1-14.9-0.2c-1.5,0-2.5,0.1-2.9,0.4c-0.4,0.3-0.9,1.3-1.5,3c-1.4,4.7-2.7,9.4-4.1,14.2
		c-1.4,4.8-2.8,9.7-4.1,14.6c-0.5,1.6-0.6,2.4-0.3,2.6c0.2,0.2,1,0.2,2.2,0.2c4.6-0.3,9.1-0.6,13.6-0.8c4.5-0.2,9.1-0.5,13.6-0.8
		c1.5-0.2,3.1-0.5,4.8-0.6c1.7-0.2,3.3-0.5,4.9-1.1c2.7-0.6,5.5-1,8.4-1.2c2.8-0.2,5.8,0.2,8.8,1.1c1,0.2,2,0.3,3.2,0.3
		c1.1,0,2.2,0,3.4,0.1c1,0.1,1.9,0.1,2.8,0c0.9-0.1,1.8-0.1,2.8,0c1,0.1,1.9,0.1,2.7,0.1c0.8,0,1.7,0.1,2.5,0.1
		c-0.8,0.3-1.6,0.6-2.5,0.8c-0.8,0.2-1.7,0.5-2.7,0.8c-1.1,0.4-2.1,0.6-3,0.6c-0.9,0.1-1.8,0.1-2.8,0.2c-0.3,0-0.5,0.2-0.8,0.5
		c0.1,0.1,0.3,0.3,0.3,0.4c0.1,0.1,0.2,0.3,0.3,0.4c0.7,0.2,1.5,0.4,2.2,0.6c0.8,0.2,1.3,0.6,1.4,1.3c0.3,0.8,0.2,1.4-0.5,1.8
		c-0.7,0.4-1.3,0.9-1.8,1.5c-0.8,0.5-1.2,1-1.2,1.7c0,0.6,0.1,1.3,0.4,2c0.3,0.3,0.7,0.4,1.1,0.6s0.9,0.2,1.3,0.3
		c0.6,0.1,1.2,0.1,1.9,0.1c0.3,0,0.4,0.1,0.4,0.4c0,0.3-0.1,0.6-0.4,0.9l-0.2,0.2c-3,1.3-5.8,2.8-8.5,4.4c-2.7,1.6-5.8,2.4-9.2,2.5
		c-3.5,0.2-6.9,0.6-10.4,1c-3.5,0.4-6.9,0.9-10.4,1.2c-5.3,0.6-10.5,1.2-15.7,1.7c-5.2,0.5-10.4,1.1-15.7,1.7
		c-1.1,0.1-1.9,0.1-2.5,0.2c-0.6,0-1,0.2-1.2,0.4c-0.3,0.2-0.4,0.7-0.5,1.3c-0.1,0.6-0.3,1.5-0.7,2.7c-0.5,3.2-1,6.5-1.6,9.8
		c-0.6,3.3-1.2,6.5-1.6,9.6c-0.1,0.8-0.3,1.5-0.7,1.9c0-0.3-0.1-0.6-0.2-0.8c-0.1-0.3-0.2-0.7-0.2-1.2c0.2-2.9,0.4-5.9,0.5-8.9
		c0.1-3,0.3-6,0.5-8.9c0-0.7,0-1.3,0.3-1.9c0.1-0.7,0.2-1.4,0.3-2c0.1-0.6-0.2-1.1-0.9-1.3c-0.7-0.5-1.6-0.5-2.6,0
		c-1,0.5-1.7,1.2-2.1,2l-0.4,0.9c-0.2,0.7-0.4,1.4-0.6,2.1c-0.2,0.7-0.4,1.4-0.6,2.1c-0.6-0.8-0.8-1.5-0.6-2.3
		c0.2-0.7,0.4-1.5,0.5-2.3c0.1-0.8,0-1.4-0.2-1.7c-0.2-0.3-0.8-0.4-1.8-0.3c-2.1,0.1-3.6,1.4-4.5,3.9c-0.2,0.6-0.5,1.3-0.9,2.1
		c-0.4,0.8-0.7,1.2-1,1.2c-0.9-0.2-1.4-0.7-1.6-1.5c-0.2-0.8-0.3-1.5-0.4-2.2c0-1.5-0.6-2.3-2-2.2l-1.5,0.1c-0.7-0.1-1.4,0-2.1,0.1
		c-0.7,0.2-1.3-0.1-1.7-0.9c0.4-0.6,0.8-1.1,1.3-1.5c0.5-0.5,1-0.9,1.5-1.4c0.7-0.3,1.3-0.7,1.9-1.2c0.6-0.5,1.2-0.9,1.9-1.4
		c0.3,0,0.8-0.5,1.6-1.4c0.3-0.4,0.3-0.9,0.1-1.5c-0.2-0.5-0.6-0.9-1.3-1c-0.3-0.1-0.9-0.1-1.9-0.1c-1.4-0.2-2.3-0.5-2.8-0.8
		c-0.4-0.4-0.8-1.3-1-2.8c-0.6-3,0.4-4.5,3-4.4c0.8-0.1,1.7-0.1,2.7-0.1c1,0,1.8-0.4,2.4-1.1c0.5-0.6,0.8-1.4,0.8-2.3
		c0-1,0.1-2,0.3-2.9c1.1-5.8,2.2-11.5,3.2-17.2c1-5.7,2-11.4,3-17.2c0.1-0.4,0.2-0.8,0.3-1.2c0.1-0.4,0.2-0.8,0.3-1.4
		c0.2-0.8,0.2-1.6,0.1-2.2c-0.2-0.6-0.9-0.9-2.1-0.8c-0.3-0.1-0.5-0.3-0.8-0.5c-0.2-0.2-0.4-0.4-0.6-0.5c0.5-0.9,0.9-1.5,1.3-1.8
		c0.4-0.3,0.8-0.6,1.3-0.7c0.5-0.2,0.9-0.4,1.3-0.5c0.4-0.3,0.6-0.8,0.5-1.3c0-0.1-0.1-0.3-0.3-0.4c-0.2-0.1-0.4-0.3-0.6-0.4
		l-1.7,0.1c-1.5-0.2-2.7-0.8-3.4-1.9c-0.7-1.1-0.9-2.4-0.6-3.9c0.5-1.1,1.1-1.8,1.7-2.2l5-0.3c1.8-0.1,2.8-1.2,3.1-3.2
		c1.6-5.6,3.1-11.2,4.6-16.8c1.5-5.6,3-11.3,4.6-17c0.2-0.6,0.3-1,0.3-1.3c0.2-1.1-0.3-1.7-1.4-1.8c-1.5-0.2-3.1-0.2-4.6-0.2
		c-1.5,0-3.1,0-4.6-0.2c-0.6,0-1.1,0-1.6-0.1c-0.5-0.1-1.1-0.3-1.8-0.5c-0.7-0.4-0.9-1-0.5-1.9c0.4-0.9,0.9-1.4,1.8-1.7
		c0.8-0.3,1.1-0.9,0.9-2.1c-0.7-0.2-1.4-0.4-2-0.5c-0.6-0.1-1.3-0.3-2-0.5c-0.8-0.1-1.5-0.7-2-2c-0.5-1.2-0.7-2.4-0.7-3.5
		c0.2-1.6,1.2-2.4,3.2-2.5c1.4-0.1,2.4-0.1,3.1,0c1,0.1,1.8,0,2.5-0.2c0.7-0.2,1.1-0.8,1.3-2c0.2-0.7,0.7-1.2,1.4-1.4
		c0.7-0.2,1.4-0.4,2.1-0.6c1.5-0.2,3.1-0.5,4.8-0.6c1.7-0.2,3.4-0.3,5.2-0.5c1.1-0.1,2-0.3,2.6-0.6c0.6-0.3,1.1-1.1,1.4-2.2
		c1-2.2,2.3-3.3,4-3.5c1.7-0.2,3.2,0.7,4.5,2.5c0.8,1.1,1.5,1.7,2.2,2c0.7,0.3,1.6,0.4,2.5,0.3c1.2-0.1,2.5-0.2,3.6-0.4
		c1.2-0.1,2.3-0.4,3.4-0.8c4.2-1.4,8.5-2.7,12.7-4c4.2-1.3,8.6-2.1,13-2.6c1.2-0.2,3.2-0.4,5.9-0.4c2.7,0,5.5,0,8.5,0
		c2.9,0.1,5.7,0.2,8.4,0.5c2.7,0.2,4.6,0.6,5.9,1.1c0.6,0.2,0.8,0.4,0.6,0.5c-0.2,0.1-0.5,0.2-1,0.5c-0.5,0.2-0.9,0.6-1.3,1
		c-0.4,0.4-0.5,1.1-0.3,1.9c0.2,0.4,0.1,0.8-0.3,1.1c-0.4,0.3-0.8,0.6-1.2,0.8c-0.4,0.2-0.7,0.5-0.9,0.7c-0.2,0.2-0.2,0.3,0.1,0.3
		c1.1,0.1,2.2,0.1,3.3,0.1c1,0,2.1,0,3.2,0.1l0.2,0.2l0,0.4c0,0.1-0.1,0.3-0.2,0.4c-1,0.1-1.9,0.1-2.7,0.2s-1.6,0.2-2.3,0.4
		c-2.1,0.4-2.6,1.7-1.6,3.7c0.2,0.4,0.4,0.8,0.6,1.2c0.2,0.4,0.5,0.9,0.8,1.6c0,0.3,0.7,0.5,1.9,0.7c0.6,0.2,1.2,0.4,1.9,0.5
		c-0.7,0.5-1.7,1.1-3.1,1.8c-1.4,0.7-2.2,1.4-2.5,2c-0.3,1.1-0.8,2-1.5,2.5c-0.7,0.5-1.5,1-2.4,1.3c-0.8,0.3-2.7,0.6-5.8,0.8
		c-3.1,0.2-6.3,0.4-9.7,0.5c-3.4,0.1-6.6,0.2-9.7,0.4c-3.1,0.1-5.1,0.2-6,0.3c-1.4,0.2-1.6,0.5-0.8,0.7c0.9,0.2,1.9,0.5,3.2,0.7
		c1.3,0.3,2.3,0.5,3.1,0.7c0.8,0.2,0.5,0.4-0.7,0.5L292.3,135.4z M241.7,226.5c-0.2-0.3-0.2-0.5-0.3-0.8c0,0.1-0.1,0.2-0.2,0.2
		c-0.3,0.3-0.4,0.5-0.4,0.7c0,0.1,0,0.4-0.2,0.6c-0.1,0.1-0.2,0.3-0.1,0.5c0.1,0.2,0.1,0.4,0.1,0.5c0.4,0,0.6-0.1,0.6-0.3
		C241.5,227.2,241.6,226.7,241.7,226.5z M294.2,129c0.3,0,0.4-0.1,0.4-0.2l-1.7,0.1c-0.1,0-0.2,0.1-0.3,0.1
		c-0.1,0.1-0.2,0.1-0.5,0.1L294.2,129z M304.9,108.8l0.4-0.4c-0.1,0-0.2-0.1-0.2-0.2l-0.8,0.1l-0.2,0c-0.4,0-0.8,0.1-1,0.2
		c-0.3,0.1-0.5,0.1-0.8,0.2c0.3,0.3,0.6,0.4,0.9,0.4l0.2,0L304.9,108.8z"/>
	<path class="st2" d="M345.6,185.2c-0.5,0.6-0.9,1.3-1.2,2c-0.3,0.7-0.6,1.4-0.8,2.1c-1.6,4.6-3.2,9.1-4.6,13.7
		c-1.4,4.6-2.8,9.1-4.2,13.5c-0.2,0.7-0.4,1.4-0.6,1.9c-0.2,0.6-0.4,1.2-0.8,1.9c0,0.3,0,0.5-0.2,0.6c-0.1,0.1-0.3,0.4-0.4,0.9
		c0-0.4-0.1-0.7-0.2-0.9c-0.1-0.2-0.1-0.4-0.2-0.7c0.5-2.3,1-4.5,1.4-6.6c0.4-2.1,0.9-4.4,1.4-6.8c0.3-1.1,0.7-2.3,1-3.6
		c0.3-1.3,0.6-2.6,0.8-3.8c0-0.1-0.1-0.3-0.1-0.4c-0.1-0.1-0.1-0.3-0.1-0.6l-0.8,0.9c-0.3,1.1-0.7,2.3-1.1,3.5
		c-0.4,1.2-0.8,2.4-1.3,3.5c-0.3,1.1-0.7,2.3-1.1,3.5c-0.4,1.2-0.8,2.4-1.3,3.5c-0.1,0.3-0.2,0.5-0.4,0.8c-0.1,0.2-0.3,0.5-0.6,0.8
		c-0.1-0.8,0-1.3,0.1-1.5c0.3-2,0.6-3.8,1-5.4c0.4-1.6,0.8-3.4,1.4-5.2c3.3-13.2,6.7-26.3,10.4-39.2c3.6-12.9,7.5-25.9,11.6-38.9
		c0-0.4,0-0.7,0-0.8c0.1-0.1,0.1-0.4,0.3-0.6c0.6-1.6,0.7-2.5,0.4-2.9c-0.3-0.3-1.2-0.3-2.7,0.1c-1.9,0.4-3.8,0.8-5.8,1.2
		c-1.9,0.4-3.8,0.8-5.8,1.2l-5,1c-1.4,0.1-2.2,0-2.5-0.2c-0.3-0.3-0.8-1.2-1.5-2.8c-1-1.9-2.7-2.7-5.2-2.6c-2.2,0.4-3.5,0.5-3.9,0.1
		c-0.4-0.4-0.8-1.5-1.4-3.5c-1.3-4.1,0.2-7.2,4.4-9.3c2.4-1.4,5-2.5,7.7-3.4c2.7-0.8,5.5-1.5,8.4-2.2c11.1-2.2,22.4-3.7,33.9-4.6
		c11.4-0.9,23.1-1.6,34.9-2c1.9-0.1,4-0.1,6.2,0.2c2.2,0.3,4.3,0.5,6.2,0.8c0.3,0,0.5,0.1,0.7,0.4c0.2,0.3,0.4,0.5,0.7,0.6
		c-0.8,0.3-1.4,0.5-1.6,0.5c-4.9,0.3-9.8,1-14.7,2c-5,1-9.8,2-14.6,3c-0.1,0-0.3,0.1-0.4,0.1c-0.1,0.1-0.3,0.1-0.4,0.1
		c0.1,0.1,0.3,0.3,0.5,0.5c0.2,0.2,0.3,0.3,0.4,0.3l10.4-0.7c4.9-0.2,9.5-0.4,14-0.7c4.4-0.2,9.1-0.4,14-0.4c0.4,0,0.9,0,1.5,0.1
		l0.4,0.2l-0.4,0.4c-0.7,0.3-1.3,0.6-1.7,0.7c-0.5,0.2-1.1,0.4-1.7,0.7c-4.1,0.7-8.2,1.5-12.2,2.3c-4,0.8-8.1,1.7-12.4,2.7
		c-1.1,0.2-2.2,0.5-3.3,1c-1.1,0.4-2.2,0.8-3.3,1.2c1.1,0.1,2.2,0.1,3.4,0.1c1.1,0,2.2-0.1,3.3-0.1l2.1-0.1c0.4,0.1,0.7,0.3,0.8,0.6
		c0.1,0.3,0.2,0.4,0.3,0.4c0,0.4-0.2,0.6-0.8,0.7c-1.9,0.4-3.9,0.8-5.8,1.1c-1.9,0.3-4,0.8-6.2,1.4c-1.7,0.3-3.3,0.5-4.9,0.8
		c-1.6,0.3-3.1,0.4-4.7,0.5c-1.7,0.3-2.7,1.2-3.1,2.9c-1.1,4.1-2.2,8.2-3.2,12.1c-1.1,4-2.1,8-3.3,11.9c-2.5,8-5,15.9-7.6,23.7
		c-2.5,7.8-5.1,15.6-7.6,23.3c-3.6,10.8-7.1,21.6-10.6,32.3c-3.5,10.7-7.1,21.5-10.8,32.3c-0.2,1.3-0.7,2.4-1.6,3.5
		c-0.7-0.5-1-1.2-0.9-1.9c0.2-0.8,0.3-1.5,0.4-2.2c1.1-5.9,2.2-11.8,3.3-17.6c1.1-5.8,2.1-11.6,3.1-17.4c0.2-0.7,0.5-1.5,0.7-2.3
		c0.2-0.9,0.4-1.8,0.4-3c0-0.1-0.1-0.2-0.1-0.3c-0.1-0.1-0.1-0.2-0.1-0.5l-0.6,0.7c-0.4,0.7-0.7,1.5-1,2.3c-0.3,0.8-0.6,1.5-0.8,2.3
		c-2.3,5.7-4.4,11.4-6.4,16.9c-2,5.5-4,11.2-6.1,17.1c-0.4,0.7-0.6,1.5-0.8,2.3c-0.2,0.8-0.7,1.3-1.7,1.5c0.1-0.7,0.1-1.4,0.1-2.2
		c-0.1-0.8,0-1.4,0.1-2c2.6-9.4,5.1-18.7,7.6-28c2.5-9.3,4.9-18.6,7.2-28c0.6-1.6,1-3.1,1.2-4.7c0.2-1.5,0.6-3.1,1-4.7
		c0.2-0.6,0.5-1.1,0.7-1.6c0.2-0.5,0.5-1,0.7-1.6c0.1-0.3,0.1-0.5,0-0.6c-0.1-0.1-0.2-0.3-0.2-0.4l-0.2,0.2c-0.1,0-0.2,0.1-0.2,0.2
		c-0.2,0.7-0.4,1.4-0.5,2C345.7,183.9,345.7,184.5,345.6,185.2z"/>
	<path class="st2" d="M425.4,199c-2.8,0.5-5.5,0.8-8.3,1.1c-2.8,0.3-5.5,0.6-8.3,0.9c-1.8,0.1-3.4,1.1-4.8,3.1
		c-3.3,4.1-6.7,8.2-10,12.3c-3.3,4.1-6.6,8.1-9.8,12.1c-1.7,2.1-3.3,4-5,5.9c-1.7,1.9-3.4,3.8-5.2,5.9l-4.6,3.7
		c-0.1,0.3-0.3,0.4-0.5,0.3c-0.2-0.1-0.4-0.2-0.6-0.5c-0.6-0.2-0.7-0.6-0.5-1.2l1.4-3.4l8.9-19.2l-0.1-1.3l-1,0.7
		c-2.6,3.4-5.2,6.6-7.9,9.8c-0.5,0.6-1.1,1.2-1.6,1.9c-0.6,0.7-1.2,1.4-1.8,2.1l-1,0.7c0-0.3-0.1-0.5-0.2-0.7
		c-0.1-0.2-0.1-0.4,0.1-0.7l3.3-6.7l4.1-7.2c0.3-0.3,0.3-0.5,0.3-0.8c-0.1-0.2-0.1-0.5,0-0.9c-0.8,0.6-1.3,0.9-1.4,0.9
		c-0.4,0-0.6,0-0.6-0.2c-0.1-0.8,0.2-1.6,0.9-2.4c0.9-1.6,1.8-3.2,2.7-4.9c0.9-1.7,1.9-3.4,2.9-5.1c0.5-1,0.2-1.5-0.7-1.6
		c-0.4-0.1-0.8-0.1-1.3,0c-0.4,0.1-0.8,0-1.3-0.2c-0.7-0.2-1.6-0.3-2.6-0.3c-1,0-1.7-0.5-2.1-1.6c-0.4-1.5-0.8-3-1.4-4.6
		c-0.5-1.6-0.2-3.2,0.9-4.8c0.1-0.1,0.2-0.3,0.3-0.5c0.1-0.2,0.2-0.3,0.5-0.3c2.3-0.6,3.4-1.9,3.3-4c0-0.1,0.2-0.3,0.6-0.5
		c0.4-0.2,0.8-0.3,1-0.3c1-0.1,1.8-0.1,2.6-0.1c0.8,0,1.6,0.1,2.4,0.1c1,0.1,1.9,0.1,2.8,0c0.9-0.1,1.7-0.5,2.5-1.2
		c0.4-0.3,0.9-0.5,1.4-0.6c0.5-0.1,1.1-0.2,1.7-0.2c1.3,0.2,2.3,0,3-0.6c0.7-0.6,1.4-1.4,2-2.4c3.3-4.7,6.6-9.4,9.9-14.1
		c3.3-4.7,6.6-9.5,9.9-14.3c4.5-7,9.3-13.9,14.3-20.7c5-6.8,10.2-13.5,15.6-20.1c1.3-1.6,2.5-3.3,3.5-5c1.1-1.7,2.2-3.3,3.5-5
		c0.9-1.2,1.7-1.8,2.3-1.9c0.6-0.1,1.6,0.1,2.9,0.7c1.1,0.3,1.6,1.1,1.4,2.4c-0.1,0.3-0.1,0.6,0.1,0.9c0.2,0.3,0.4,0.5,0.7,0.5
		c0.3,0,0.6,0,0.9-0.1c0.3,0,0.6-0.2,0.9-0.5c0.4-0.4,0.7-1,0.9-1.5c0.2-0.6,0.5-1.1,0.7-1.5c0.6-1.2,1.2-2.2,1.7-3.1
		c0.5-0.9,1-2,1.7-3.1c1.3-2,2.5-3.3,3.6-3.8c1.1-0.5,2.8-0.5,4.9,0.1c1.1,0.2,2,0.7,2.6,1.6c0.6,0.9,1.2,1.8,1.7,2.7
		c0.1,1,0.2,1.5,0.3,1.7c2.5,2.3,4,4.9,4.4,7.6c0.4,2.8,0.3,5.6-0.3,8.6c-1.2,5.2-2.4,10.4-3.6,15.4c-1.3,5-2.6,10.1-4.1,15
		c-1.1,3.7-2.4,7.4-3.7,11.1c-1.3,3.7-2.7,7.5-3.9,11.4c-0.7,2-1.3,4.1-1.6,6.4c-0.4,2.3-0.9,4.5-1.4,6.6c-0.3,1.3,0.1,1.9,1.4,1.8
		l10.2-0.7c0.3,0,0.5,0.1,0.5,0.3c0.1,0.2,0.3,0.3,0.5,0.3c-0.4,0.4-0.7,0.7-0.8,0.7l-7.5,3l-0.8,0.5c0.3,0,0.5,0,0.5,0.2
		c0.1,0.1,0.2,0.2,0.3,0.2l2.5-0.2c0.1,0,0.3,0,0.5,0.2c0.2,0.1,0.5,0.2,0.8,0.4l-1.2,0.7c-0.7,0.2-1.3,0.3-2,0.4
		c-0.6,0.1-1.2,0.3-1.7,0.6l-3.4,1.7c0.4,0,1,0,1.7,0c0.7,0,1.4-0.1,2.1-0.2c1.8-0.1,3.5-0.2,5.2-0.4s3.4-0.3,5.2-0.6
		c0.3,0,0.5,0,0.6,0.1c0.1,0.1,0.3,0.1,0.4,0.1c-0.2,0.6-0.6,0.9-1,1.1c-2.3,0.7-4.6,1.4-6.8,2.1c-2.2,0.7-4.4,1.3-6.8,1.7
		c-1.6,0.4-2.8,1-3.3,1.7c-0.6,0.7-1,1.8-1.3,3.2l-8,42.2l-0.3,1.5c0,0.1-0.1,0.4-0.4,0.7c0-0.1-0.1-0.3-0.1-0.4
		c-0.1-0.1-0.1-0.3-0.1-0.4c0.1-2.4,0.2-4.8,0.1-7.2c0-2.4,0.1-4.9,0.3-7.2c0.1-2.4,0.3-4.6,0.7-6.7c0.3-2.1,0.6-4.3,0.7-6.5
		c0-0.1-0.2-0.5-0.5-1.2c-0.2,0.6-0.4,0.8-0.4,0.7c-0.4,0.6-0.7,1.4-0.9,2.6c-1.4,5.4-2.9,10.9-4.3,16.4c-1.4,5.5-2.9,11.1-4.3,16.8
		l-0.6,2.8c0,0.1-0.1,0.2-0.2,0.2l-0.4,0c-0.6,0-0.8-0.1-0.9-0.4c-0.4-1.2-0.7-2.5-1.1-3.8c-0.4-1.3-0.6-2.5-0.7-3.6
		c0-3.8,0-7.5-0.1-11.2c-0.1-3.7-0.2-7.3-0.1-11l0.7-11.8c0-0.3-0.2-0.7-0.5-1.2c0,0.3-0.1,0.7-0.3,1.3c-1,5.5-2,11-2.9,16.4
		c-1,5.4-1.9,10.9-2.7,16.4c-0.4,2.3-0.7,4.5-1,6.9c-0.3,2.3-0.6,4.7-1,7.1l0.1,1c-0.3-0.5-0.5-0.9-0.5-1.2
		c0.1-4.1,0.3-8.2,0.4-12.4c0.1-4.2,0.4-8.3,0.8-12.4l3.9-31c0-0.3,0-0.5,0.1-0.7c0.1-0.2,0.1-0.5,0.1-0.7c0.2-1-0.2-1.4-1.3-1.4
		L425.4,199z M427.9,183.3l0.2,0c0.8-0.1,1.7-0.1,2.5-0.1c0.8,0,1.6,0,2.3-0.1c1.4-0.1,2.2-0.3,2.5-0.5c0.3-0.2,0.5-1,0.7-2.2
		l0.9-5.3c1-4.3,1.8-8.5,2.7-12.8c0.8-4.3,1.7-8.7,2.7-13c0.1-0.3,0.1-0.5-0.1-0.7c-0.2-0.2-0.2-0.4-0.3-0.7
		c-0.1,0.2-0.3,0.3-0.5,0.3c-0.2,0.1-0.4,0.3-0.5,0.6c-2.5,4.8-5.1,9.4-7.9,13.8c-2.8,4.5-5.7,8.9-8.6,13.5
		c-0.8,1.2-1.6,2.2-2.4,3.2c-0.8,1-1.4,2.2-1.5,3.6L427.9,183.3z M430.7,188.8c-0.6,0-1.1,0.1-1.7,0.2c-0.6,0.1-1.1,0.2-1.7,0.2
		c-0.5,0.3-0.9,0.5-1.2,0.5c0.4,0.4,0.8,0.6,1.1,0.6c1,0.1,1.9,0.1,2.8,0c0.9-0.1,1.8-0.1,2.8-0.2c0.3,0,0.5-0.1,0.6-0.4
		c0.1-0.2,0.3-0.4,0.6-0.6c-0.3-0.1-0.5-0.2-0.5-0.4c-0.1-0.1-0.3-0.2-0.5-0.2L430.7,188.8z"/>
</g>
</svg>
