<?xml version="1.0" encoding="utf-8"?>
<!-- Generator: Adobe Illustrator 23.0.0, SVG Export Plug-In . SVG Version: 6.00 Build 0)  -->
<svg version="1.1" id="Capa_1" xmlns="http://www.w3.org/2000/svg" xmlns:xlink="http://www.w3.org/1999/xlink" x="0px" y="0px"
	 viewBox="0 0 358 88" style="enable-background:new 0 0 358 88;" xml:space="preserve">
<style type="text/css">
	.st0{fill:#DA4167;}
	.st1{fill:#FFFFFF;}
</style>
<g>
	<path class="st0" d="M51.2,21.6c0.1,0,0-2,0-2.1c-0.1-0.6-0.2-1.3-0.6-1.7c0,0-0.2-0.7-2.5-1.7L28.5,8.8c0,0-4-1.2-4.4,2.3L24,76.7
		c0,0,0.5,3.6,5,1.7c0,0,20.3-9.1,20.3-9.1c0.6-0.3,1.1-0.8,1.4-1.4c0.5-0.8,0.6-1.8,0.5-2.8c0,0,2.4-0.1,2.6-0.1c0,0,0.1,0,0.2,0
		c0,0,0.3,4-3,6.2L24.6,83.8c0,0-6.3,0.8-6.3-3.4V7.7c0,0,1.5-5.3,8.7-2.8l23.4,9.6c0,0,3.4,1.3,3.4,4.5l0.2,2.7
		C54,21.9,51.5,21.6,51.2,21.6z"/>
	<path class="st0" d="M41,16.2l-5.4-1.2c-0.4-0.1-0.7-0.5-0.6-1l0,0c0.1-0.4,0.5-0.7,1-0.6l5.4,1.2c0.4,0.1,0.7,0.5,0.6,1l0,0
		C41.8,16.1,41.4,16.3,41,16.2z"/>
	<path class="st0" d="M43.4,17.3l-0.2,0c-0.4-0.1-0.7-0.5-0.6-1l0,0c0.1-0.4,0.5-0.7,1-0.6l0.2,0.1c0.4,0.1,0.7,0.5,0.6,1l0,0
		C44.2,17.1,43.8,17.4,43.4,17.3z"/>
	<path class="st0" d="M42.3,69.5l-5,2.5c-0.8,0.4-1.9,0.1-2.3-0.8l0,0c-0.4-0.8-0.1-1.9,0.8-2.3l5-2.5c0.8-0.4,1.9-0.1,2.3,0.8l0,0
		C43.5,68,43.2,69.1,42.3,69.5z"/>
	<g>
		<path class="st1" d="M57.8,52.3c-0.2,0.8-0.3,1.8-0.5,3.2s-0.4,2.4-0.4,3.2c-2.7,0.4-5.2,0.6-7.3,0.6c-2.1,0-4-0.3-5.8-0.8
			C42,58,40.4,57.2,38.9,56c-1.5-1.2-2.5-2.6-3.2-4.3c-0.6-1.6-1-3.5-1-5.5c0-2.4,0.4-4.5,1.3-6.4c0.9-1.9,2.1-3.5,3.7-4.7
			c1.6-1.3,3.4-2.2,5.3-2.7c1.9-0.5,3.9-0.8,6-0.8c1.9,0,4.2,0.3,7,0.7l0,1.6c0,0.7,0.1,1.5,0.1,2.4l0.1,2.2
			c-1.5-0.4-2.7-0.6-3.6-0.7s-1.8-0.2-2.6-0.2c-1.7,0-3.3,0.3-4.7,1.1s-2.5,1.7-3.3,3.1S43,44.7,43,46.3c0,1.5,0.3,2.8,1,3.8
			s1.6,1.9,2.7,2.5c1.1,0.6,2.5,0.9,4.2,0.9c0.9,0,1.9-0.1,3-0.2C54.9,53.1,56.2,52.8,57.8,52.3z"/>
		<path class="st1" d="M61.5,58.8c0.3-3.4,0.5-6.2,0.7-8.5s0.3-5.3,0.4-9c0.2-3.8,0.2-6.3,0.2-7.5l0-1.7c3,0,6.7,0,10.9,0
			c3.9,0,7.4,0,10.4,0l0,0.6c0,0.2,0,0.7-0.1,1.7l-0.1,2.1c0,0.5,0,0.9,0,1.4c-2.5-0.1-4.5-0.2-6.2-0.2c-1.8,0-3.1,0-3.7,0
			s-1.7,0-3,0.1l-0.2,4.5c1.5,0,3.3,0.1,5.3,0.1c0.7,0,2.6,0,5.7-0.1c-0.1,1.7-0.3,3.7-0.4,6c-2.2,0-3.9,0-5.1,0
			c-1.8,0-3.7,0-5.9,0.1l-0.2,4.8h2.2c0.7,0,2,0,4-0.1l4-0.1c0.6,0,1.6-0.1,2.9-0.2c-0.2,1.9-0.3,3.9-0.4,6c-3.1,0-6.5,0-10.2,0
			l-8.4,0L61.5,58.8z"/>
		<path class="st1" d="M87.1,58.8c0.3-3.1,0.6-5.6,0.7-7.5c0.3-3.5,0.5-7.1,0.6-10.6c0.1-3.5,0.2-6.4,0.2-8.6c1.7,0,3.3,0,4.6,0
			c0.9,0,2.2,0,3.9,0l-0.5,7.1l-0.6,11.1L96,53c2.2,0,3.6,0.1,4.3,0.1c3.3,0,5.9,0,7.6-0.1l-0.4,5.9c-3.3,0-6.6,0-9.6,0
			C93.8,58.8,90.2,58.8,87.1,58.8z"/>
		<path class="st1" d="M111.4,32.1c2,0,3.4,0,4.2,0c1,0,2.4,0,4.1,0l-0.6,8.3c-0.1,1.6-0.2,3-0.3,4.4s-0.1,2.3-0.1,2.8
			c0,1,0.1,1.8,0.2,2.5c0.1,0.7,0.4,1.2,0.8,1.7s0.9,0.8,1.5,1c0.7,0.2,1.3,0.3,2.1,0.3c0.6,0,1.2-0.1,1.7-0.3
			c0.4-0.1,0.8-0.3,1.1-0.6c0.3-0.2,0.6-0.5,0.8-0.8c0.3-0.4,0.5-0.8,0.7-1.4c0.2-0.5,0.4-1.2,0.5-2c0.1-0.8,0.3-2.8,0.5-5.8
			c0.2-2.6,0.3-4.9,0.4-7.1c0.1-2.1,0.1-3.1,0.2-3.1c1.9,0,3.4,0,4.6,0h3.9L136.7,46c0,0.3,0,0.5,0,0.7c-0.1,2.7-0.2,4.6-0.5,5.7
			s-0.7,2.1-1.4,2.9s-1.6,1.6-2.8,2.2c-1.2,0.7-2.6,1.1-4.2,1.4c-1.6,0.3-3.1,0.4-4.7,0.4c-1.4,0-2.8-0.1-4.1-0.3
			c-1.2-0.2-2.3-0.5-3.3-0.9c-1-0.4-1.8-0.9-2.6-1.4c-0.7-0.5-1.2-1-1.5-1.5c-0.4-0.5-0.6-1.1-0.8-1.8c-0.2-0.8-0.3-1.7-0.3-2.6
			c0-0.3,0-0.8,0-1.4c0-0.6,0.1-1.5,0.2-2.7l0.3-3.1c0.1-0.8,0.1-2,0.2-3.6L111.4,32.1z"/>
		<path class="st0" d="M137.3,58.8l1.6-2.8l9.9-19l1.1-2.1c0.3-0.6,0.7-1.5,1.3-2.7c2.2,0,3.9,0,4.9,0c1.8,0,3.5,0,5,0l2.8,8.2
			l5.7,15.7l1.1,2.9c-2.2,0-3.6,0-4,0c-1.1,0-2.6,0-4.7,0c-0.6-2.2-1.4-4.7-2.4-7.6h-9.6c-1.1,2.3-2.3,4.8-3.4,7.6
			c-2.4,0-3.8,0-4.4,0C141,58.8,139.4,58.8,137.3,58.8z M152.1,45.6h5.9c-1.5-4.6-2.3-7.1-2.4-7.6c-0.8,1.9-1.6,3.5-2.1,4.7
			L152.1,45.6z"/>
		<path class="st0" d="M172.7,58.8l0.4-5l0.5-9.8l0.2-6.9c0-0.7,0-1.5,0-2.2c0-0.6,0-1.5,0-2.8c1.7,0,3,0.1,4.1,0.1c1,0,2.3,0,4-0.1
			c1.7-0.1,3.2-0.1,4.3-0.1c1.7,0,3,0.1,3.8,0.3s1.6,0.6,2.2,1c0.7,0.5,1.2,1,1.6,1.7c0.4,0.6,0.8,1.4,1,2.2
			c0.2,0.8,0.3,1.7,0.3,2.5c0,1.8-0.4,3.3-1.2,4.8s-2,2.5-3.5,3.3s-3.2,1.1-5.1,1.1c-0.7,0-1.5-0.1-2.4-0.2
			c-0.1-0.6-0.3-1.5-0.6-2.7c-0.3-1.2-0.5-2.1-0.7-2.6c0.6,0.1,1.1,0.2,1.8,0.2c1.3,0,2.3-0.3,2.9-1s0.9-1.4,0.9-2.3
			c0-0.4-0.1-0.8-0.2-1.2c-0.1-0.3-0.4-0.6-0.7-0.8c-0.3-0.2-0.6-0.4-1-0.4c-0.4-0.1-0.8-0.1-1.3-0.1c-0.5,0-0.9,0-1.4,0l-1.6,0.1
			c-0.2,2.5-0.3,5.3-0.4,8.4c-0.2,5.6-0.3,9-0.3,10.1v2.5l-3.8,0C176.1,58.8,174.8,58.8,172.7,58.8z"/>
		<path class="st0" d="M198.8,32.1c2,0,3.4,0,4.2,0c1,0,2.4,0,4.1,0l-0.6,8.3c-0.1,1.6-0.2,3-0.3,4.4s-0.1,2.3-0.1,2.8
			c0,1,0.1,1.8,0.2,2.5c0.1,0.7,0.4,1.2,0.8,1.7s0.9,0.8,1.5,1c0.7,0.2,1.3,0.3,2.1,0.3c0.6,0,1.2-0.1,1.7-0.3
			c0.4-0.1,0.8-0.3,1.1-0.6c0.3-0.2,0.6-0.5,0.8-0.8c0.3-0.4,0.5-0.8,0.7-1.4c0.2-0.5,0.4-1.2,0.5-2c0.1-0.8,0.3-2.8,0.5-5.8
			c0.2-2.6,0.3-4.9,0.4-7.1c0.1-2.1,0.1-3.1,0.2-3.1c1.9,0,3.4,0,4.6,0h3.9L224,46c0,0.3,0,0.5,0,0.7c-0.1,2.7-0.2,4.6-0.5,5.7
			c-0.3,1.1-0.7,2.1-1.4,2.9s-1.6,1.6-2.8,2.2c-1.2,0.7-2.6,1.1-4.2,1.4s-3.1,0.4-4.7,0.4c-1.4,0-2.8-0.1-4.1-0.3
			c-1.2-0.2-2.3-0.5-3.3-0.9s-1.8-0.9-2.6-1.4c-0.7-0.5-1.2-1-1.5-1.5c-0.4-0.5-0.6-1.1-0.8-1.8c-0.2-0.8-0.3-1.7-0.3-2.6
			c0-0.3,0-0.8,0-1.4c0-0.6,0.1-1.5,0.2-2.7l0.3-3.1c0.1-0.8,0.1-2,0.2-3.6L198.8,32.1z"/>
		<path class="st0" d="M228,58.8c0.3-3.4,0.6-6.2,0.7-8.5s0.3-5.3,0.4-9c0.1-3.8,0.2-6.3,0.2-7.5l0-1.7c3,0,6.6,0,10.9,0
			c3.9,0,7.4,0,10.4,0l0,0.6c0,0.2,0,0.7-0.1,1.7l-0.1,2.1c0,0.5,0,0.9,0,1.4c-2.5-0.1-4.5-0.2-6.2-0.2c-1.8,0-3.1,0-3.7,0
			s-1.6,0-3,0.1l-0.2,4.5c1.5,0,3.3,0.1,5.3,0.1c0.7,0,2.6,0,5.7-0.1c-0.1,1.7-0.3,3.7-0.4,6c-2.2,0-3.9,0-5.1,0
			c-1.8,0-3.7,0-5.9,0.1l-0.2,4.8h2.2c0.6,0,2,0,4-0.1l4-0.1c0.6,0,1.6-0.1,2.9-0.2c-0.1,1.9-0.3,3.9-0.4,6c-3.1,0-6.5,0-10.2,0
			l-8.4,0L228,58.8z"/>
		<path class="st0" d="M253.6,58.4c-0.2-2.8-0.4-5-0.6-6.7c1.4,0.7,2.7,1.1,3.8,1.4c1.1,0.3,2.1,0.4,2.9,0.4c1.1,0,2-0.2,2.6-0.5
			s1-0.8,1-1.5c0-0.2,0-0.4-0.1-0.6s-0.2-0.4-0.4-0.7c-0.2-0.3-0.4-0.5-0.8-0.8l-3.6-3.2c-0.8-0.7-1.4-1.3-1.8-1.6
			c-0.7-0.7-1.2-1.3-1.6-1.9s-0.6-1.2-0.8-1.8c-0.2-0.6-0.3-1.2-0.3-1.9c0-0.8,0.1-1.6,0.4-2.3c0.3-0.8,0.7-1.5,1.2-2.1
			c0.6-0.7,1.3-1.2,2.2-1.7s1.9-0.8,2.9-1s2.1-0.3,3.2-0.3c2.1,0,4.5,0.3,7,0.8c0,0.9,0.1,1.7,0.1,2.5c0,0.8,0.2,2.1,0.4,3.9
			c-1.2-0.5-2.2-0.8-3.2-1s-1.8-0.3-2.5-0.3c-1,0-1.8,0.2-2.5,0.6s-1,0.8-1,1.4c0,0.3,0,0.5,0.1,0.8c0.1,0.3,0.3,0.5,0.6,0.9
			c0.3,0.3,0.6,0.7,1.1,1.1c0.5,0.4,1.2,1,2.2,1.8l1.4,1.1c0.4,0.3,0.9,0.8,1.3,1.2s0.9,1,1.2,1.4s0.6,0.9,0.8,1.3
			c0.2,0.4,0.3,0.8,0.4,1.2c0.1,0.4,0.1,0.8,0.1,1.3c0,1.2-0.3,2.3-0.8,3.3c-0.5,1.1-1.3,1.9-2.3,2.6s-2.1,1.2-3.3,1.4
			c-1.2,0.3-2.5,0.4-3.8,0.4C259.4,59.4,256.8,59,253.6,58.4z"/>
		<path class="st0" d="M281.3,58.8c0.6-6.3,1-13.3,1.1-20.9l-8.1,0.2l0.1-2.2c0-1.2,0.1-2.4,0.1-3.8c3.6,0,7.8,0,12.7,0l4.7,0h4.6
			l2.5,0l-0.1,1.9c0,1-0.1,1.9-0.1,2.5s0,1.2,0,1.5c-2.7-0.1-5-0.2-6.7-0.2h-1.3c-0.2,2.3-0.3,4.4-0.4,6.4c-0.1,2.8-0.3,5.5-0.3,8.2
			c-0.1,2.6-0.1,4.8-0.1,6.4c-2.1,0-3.4,0-4,0C285.2,58.8,283.7,58.8,281.3,58.8z"/>
		<path class="st0" d="M297,58.8l1.6-2.8l9.9-19l1-2.1c0.3-0.6,0.7-1.5,1.3-2.7c2.2,0,3.9,0,4.9,0c1.8,0,3.5,0,5,0l2.8,8.2l5.7,15.7
			l1.1,2.9c-2.2,0-3.5,0-4,0c-1.1,0-2.6,0-4.7,0c-0.6-2.2-1.4-4.7-2.4-7.6h-9.6c-1.1,2.3-2.3,4.8-3.4,7.6c-2.4,0-3.8,0-4.4,0
			C300.7,58.8,299.1,58.8,297,58.8z M311.8,45.6h5.9c-1.5-4.6-2.3-7.1-2.4-7.6c-0.8,1.9-1.5,3.5-2.1,4.7L311.8,45.6z"/>
		<path class="st0" d="M332,58.4c-0.2-2.8-0.4-5-0.6-6.7c1.4,0.7,2.7,1.1,3.8,1.4c1.1,0.3,2.1,0.4,2.9,0.4c1.1,0,2-0.2,2.6-0.5
			c0.7-0.3,1-0.8,1-1.5c0-0.2,0-0.4-0.1-0.6c-0.1-0.2-0.2-0.4-0.4-0.7c-0.2-0.3-0.4-0.5-0.8-0.8l-3.6-3.2c-0.8-0.7-1.4-1.3-1.8-1.6
			c-0.7-0.7-1.2-1.3-1.6-1.9c-0.4-0.6-0.6-1.2-0.8-1.8s-0.3-1.2-0.3-1.9c0-0.8,0.1-1.6,0.4-2.3s0.7-1.5,1.2-2.1s1.3-1.2,2.2-1.7
			s1.9-0.8,2.9-1c1-0.2,2.1-0.3,3.2-0.3c2.2,0,4.5,0.3,7,0.8c0,0.9,0.1,1.7,0.1,2.5c0,0.8,0.2,2.1,0.4,3.9c-1.2-0.5-2.2-0.8-3.2-1
			s-1.8-0.3-2.5-0.3c-1,0-1.8,0.2-2.5,0.6s-1,0.8-1,1.4c0,0.3,0,0.5,0.1,0.8c0.1,0.3,0.3,0.5,0.6,0.9s0.6,0.7,1.1,1.1
			c0.5,0.4,1.2,1,2.2,1.8l1.4,1.1c0.4,0.3,0.9,0.8,1.3,1.2s0.9,1,1.2,1.4s0.6,0.9,0.8,1.3c0.2,0.4,0.3,0.8,0.4,1.2
			c0.1,0.4,0.1,0.8,0.1,1.3c0,1.2-0.3,2.3-0.8,3.3c-0.5,1.1-1.3,1.9-2.3,2.6c-1,0.7-2.1,1.2-3.3,1.4s-2.5,0.4-3.8,0.4
			C337.8,59.4,335.2,59,332,58.4z"/>
	</g>
</g>
<rect x="-273.5" y="-171.8" class="st0" width="188.4" height="90.4"/>
</svg>
