<?xml version="1.0" encoding="utf-8"?>
<!-- Generator: Adobe Illustrator 23.0.0, SVG Export Plug-In . SVG Version: 6.00 Build 0)  -->
<svg version="1.1" xmlns="http://www.w3.org/2000/svg" xmlns:xlink="http://www.w3.org/1999/xlink" x="0px" y="0px"
	 viewBox="0 0 599 119" style="enable-background:new 0 0 599 119;" xml:space="preserve">
<style type="text/css">
	.st0{display:none;}
	.st1{display:inline;fill:#BF8200;}
	.st2{display:inline;fill:#FFFFFF;}
	.st3{fill:#FFFFFF;}
	.st4{fill:#D89300;}
	.st5{fill:none;stroke:#D89300;stroke-width:4;stroke-miterlimit:10;}
	.st6{fill:none;stroke:#D89300;stroke-width:2;stroke-miterlimit:10;}
</style>
<g id="Capa_1" class="st0">
	<circle class="st1" cx="588.17" cy="290.81" r="42.21"/>
	<rect x="306.4" y="248.6" class="st1" width="281.77" height="84.42"/>
	<text transform="matrix(1 0 0 1 38.0413 319.2988)" style="display:inline;"><tspan x="0" y="0" class="st3" style="font-family:'CocogooseClassicTrial-Medium'; font-size:87.1174px; letter-spacing:13;">MAGI</tspan><tspan x="274.53" y="0" class="st3" style="font-family:'CocogooseClassicTrial-ExtraBold'; font-size:87.1174px; letter-spacing:13;">PLAY</tspan></text>
	<polygon class="st2" points="602.32,290.81 590.59,297.58 578.87,304.34 578.87,290.81 578.87,277.27 590.59,284.04 	"/>
</g>
<g id="Capa_2">
	<g>
		<path class="st3" d="M152.75,42.63l5.47,8.2l-0.75,0.52c-0.54-0.5-0.98-0.75-1.33-0.75s-1.32,0.46-2.91,1.39
			c-3.3,1.91-6.08,3.19-8.34,3.86c-2.26,0.66-4.94,1-8.05,1c-6.2,0-11.29-1.47-15.27-4.41c-2.34-1.71-4.19-3.83-5.53-6.37
			c-1.56-2.9-2.33-6.1-2.33-9.59c0-4.76,1.39-8.9,4.18-12.42c4.19-5.28,10.52-7.92,18.98-7.92c3.11,0,5.78,0.33,8.01,0.98
			c2.23,0.65,5.01,1.94,8.35,3.86c1.59,0.9,2.56,1.35,2.91,1.35s0.79-0.25,1.33-0.75l0.75,0.52l-5.47,8.21l-0.78-0.52
			c0.04-0.31,0.06-0.56,0.06-0.77c0-0.55-0.24-1.08-0.72-1.56c-0.48-0.49-1.33-1.08-2.56-1.77c-3.4-1.91-7-2.87-10.8-2.87
			c-4.49,0-8.08,1.12-10.75,3.37c-3.15,2.63-4.72,6.06-4.72,10.3s1.57,7.67,4.72,10.3c2.67,2.25,6.25,3.37,10.75,3.37
			c3.8,0,7.4-0.96,10.8-2.88c1.23-0.69,2.08-1.28,2.56-1.77c0.48-0.49,0.72-1.01,0.72-1.57c0-0.21-0.02-0.46-0.06-0.75L152.75,42.63
			z"/>
		<path class="st3" d="M183.41,49.66h24.17c0.6,0,1.05-0.13,1.35-0.4c0.31-0.27,0.56-0.75,0.75-1.44h0.92v10.17h-0.92
			c-0.19-0.69-0.44-1.17-0.75-1.44c-0.31-0.27-0.76-0.4-1.35-0.4h-34.6v-0.92c0.69-0.19,1.17-0.44,1.44-0.75
			c0.27-0.31,0.4-0.76,0.4-1.35V19.84c0-0.6-0.13-1.05-0.4-1.35c-0.27-0.31-0.75-0.56-1.44-0.75v-0.92h12.27v0.92
			c-0.69,0.17-1.17,0.42-1.44,0.74c-0.27,0.32-0.4,0.77-0.4,1.37V49.66z"/>
		<path class="st3" d="M234,38.88v10.77h25.29c0.58,0,1.02-0.13,1.33-0.4c0.31-0.27,0.56-0.75,0.75-1.44h0.92v10.17h-0.92
			c-0.19-0.69-0.44-1.17-0.75-1.44c-0.31-0.27-0.75-0.4-1.33-0.4h-35.72v-0.92c0.69-0.19,1.17-0.44,1.44-0.75
			c0.27-0.31,0.4-0.76,0.4-1.35V19.84c0-0.6-0.13-1.05-0.4-1.35c-0.27-0.31-0.75-0.56-1.44-0.75v-0.92h35.03
			c0.58,0,1.02-0.14,1.33-0.41c0.31-0.27,0.56-0.75,0.75-1.43h0.92v10.17h-0.92c-0.19-0.68-0.44-1.16-0.75-1.43
			c-0.31-0.27-0.75-0.41-1.33-0.41H234v9.33h15.96c0.58,0,1.02-0.13,1.33-0.4c0.31-0.27,0.56-0.75,0.75-1.44h0.92v9.94h-0.92
			c-0.19-0.67-0.44-1.15-0.75-1.43c-0.31-0.28-0.75-0.42-1.33-0.42H234z"/>
		<path class="st3" d="M298.87,16.12c6.86,0,12.3,1.85,16.32,5.56c4.25,3.88,6.37,8.89,6.37,15.04c0,3.76-1.02,7.28-3.06,10.54
			c-3.98,6.38-10.5,9.56-19.57,9.56c-6.8,0-12.21-1.85-16.23-5.56c-2.15-1.98-3.79-4.35-4.9-7.12c-0.98-2.44-1.47-5-1.47-7.69
			c0-3.94,1.01-7.54,3.03-10.8C283.22,19.42,289.72,16.24,298.87,16.12z M298.9,22.81c-3.75,0-6.87,1.11-9.37,3.34
			c-2.96,2.63-4.44,6.07-4.44,10.33s1.48,7.7,4.44,10.33c2.5,2.23,5.64,3.34,9.43,3.34c3.79,0,6.92-1.11,9.4-3.34
			c1.48-1.32,2.61-2.94,3.4-4.86c0.69-1.71,1.04-3.47,1.04-5.29c0-4.45-1.48-7.95-4.44-10.5C305.84,23.96,302.69,22.85,298.9,22.81z
			"/>
		<path class="st3" d="M347,40.18v12.96c0,0.58,0.14,1.02,0.42,1.34c0.28,0.32,0.75,0.56,1.43,0.73v0.92h-12.27v-0.92
			c0.69-0.19,1.17-0.44,1.44-0.75c0.27-0.31,0.4-0.75,0.4-1.33v-33.3c0-0.6-0.13-1.05-0.4-1.35c-0.27-0.31-0.75-0.56-1.44-0.75
			v-0.92h24.54c2.86,0,5.13,0.19,6.81,0.58c1.68,0.38,3.16,1.05,4.45,1.99c1.32,0.98,2.36,2.27,3.11,3.86
			c0.75,1.65,1.12,3.4,1.12,5.24c0,2.65-0.71,4.97-2.13,6.97c-1.23,1.71-2.86,2.92-4.88,3.64c-2.03,0.72-4.85,1.08-8.48,1.08H347z
			 M347,33.7h13.11c2.61,0,4.45-0.28,5.5-0.83c0.67-0.37,1.21-0.95,1.63-1.74c0.41-0.8,0.62-1.68,0.62-2.64
			c0-0.94-0.21-1.81-0.62-2.61c-0.41-0.8-0.96-1.38-1.63-1.74c-1.04-0.56-2.87-0.83-5.5-0.83H347V33.7z"/>
		<path class="st3" d="M415.22,46.11h-17.87l-2.65,5.53c-0.37,0.77-0.55,1.37-0.55,1.81c0,0.85,0.64,1.43,1.93,1.76v0.92h-13.01
			v-0.92c0.77-0.15,1.35-0.42,1.76-0.81c0.4-0.38,0.86-1.13,1.38-2.25l14.46-30.22c0.46-0.96,0.69-1.73,0.69-2.3
			c0-0.88-0.56-1.52-1.67-1.9v-0.92h13.94v0.92c-1.13,0.33-1.7,0.89-1.7,1.7c0,0.56,0.18,1.19,0.55,1.9l14.98,30.31
			c0.63,1.29,1.19,2.17,1.67,2.64s1.12,0.78,1.93,0.94v0.92h-14.48v-0.92c1.27-0.21,1.91-0.81,1.91-1.79c0-0.4-0.19-1-0.58-1.79
			L415.22,46.11z M412.75,40.73l-6.38-14.01l-6.48,14.01H412.75z"/>
		<path class="st3" d="M459.65,23.3v29.82c0,0.6,0.13,1.05,0.4,1.35c0.27,0.31,0.75,0.56,1.44,0.75v0.92h-12.27v-0.92
			c0.69-0.19,1.17-0.44,1.44-0.75s0.4-0.76,0.4-1.35V23.3h-12.21c-0.58,0-1.02,0.13-1.33,0.39c-0.31,0.26-0.56,0.75-0.75,1.45h-0.92
			V14.97h0.92c0.21,0.7,0.46,1.18,0.76,1.45c0.3,0.26,0.73,0.4,1.31,0.4h32.99c0.59,0,1.05-0.13,1.35-0.4
			c0.31-0.26,0.56-0.75,0.75-1.45h0.92v10.17h-0.92c-0.19-0.7-0.44-1.19-0.75-1.45c-0.31-0.26-0.76-0.39-1.35-0.39H459.65z"/>
		<path class="st3" d="M498.06,40.09v13.05c0,0.58,0.14,1.02,0.42,1.34c0.28,0.32,0.75,0.56,1.43,0.73v0.92h-12.27v-0.92
			c0.69-0.19,1.17-0.44,1.44-0.75c0.27-0.31,0.4-0.75,0.4-1.33v-33.3c0-0.6-0.13-1.05-0.4-1.35c-0.27-0.31-0.75-0.56-1.44-0.75
			v-0.92h24.6c3,0,5.37,0.17,7.13,0.52c1.76,0.35,3.29,0.95,4.59,1.82c1.52,1,2.65,2.35,3.4,4.06c0.71,1.65,1.07,3.42,1.07,5.3
			c0,6.42-3.56,10.17-10.69,11.26l7.63,10.86c1.34,1.9,2.33,3.13,2.95,3.67c0.62,0.55,1.39,0.85,2.29,0.91v0.92h-14.21v-0.92
			c0.98-0.15,1.47-0.5,1.47-1.04c0-0.35-0.45-1.18-1.35-2.51l-7.96-11.58H498.06z M498.06,33.61h13.25c1.96,0,3.34-0.06,4.15-0.17
			s1.55-0.36,2.22-0.72c1.46-0.79,2.19-2.21,2.19-4.26c0-2.05-0.73-3.48-2.19-4.26c-0.69-0.38-1.43-0.63-2.2-0.73
			c-0.78-0.11-2.17-0.16-4.16-0.16h-13.25V33.61z"/>
		<path class="st3" d="M572.99,46.11h-17.87l-2.65,5.53c-0.37,0.77-0.55,1.37-0.55,1.81c0,0.85,0.64,1.43,1.93,1.76v0.92h-13.01
			v-0.92c0.77-0.15,1.35-0.42,1.76-0.81s0.86-1.13,1.38-2.25l14.46-30.22c0.46-0.96,0.69-1.73,0.69-2.3c0-0.88-0.56-1.52-1.67-1.9
			v-0.92h13.94v0.92c-1.13,0.33-1.7,0.89-1.7,1.7c0,0.56,0.18,1.19,0.55,1.9l14.98,30.31c0.63,1.29,1.19,2.17,1.67,2.64
			s1.12,0.78,1.93,0.94v0.92h-14.48v-0.92c1.27-0.21,1.91-0.81,1.91-1.79c0-0.4-0.19-1-0.58-1.79L572.99,46.11z M570.53,40.73
			l-6.38-14.01l-6.48,14.01H570.53z"/>
	</g>
	<g>
		<path class="st4" d="M479.79,81.5c4.42,1.67,6.63,4.76,6.63,9.28c0,3.59-1.29,6.41-3.86,8.44c-1.31,1.02-2.82,1.75-4.54,2.2
			s-3.85,0.68-6.38,0.68h-26.88v-0.92c0.69-0.19,1.17-0.44,1.44-0.75c0.27-0.31,0.4-0.76,0.4-1.35V65.8c0-0.6-0.13-1.05-0.4-1.35
			c-0.27-0.31-0.75-0.56-1.44-0.75v-0.92h26.62c2.55,0,4.61,0.19,6.17,0.58c1.56,0.38,2.92,1.04,4.09,1.96
			c2.32,1.82,3.49,4.46,3.49,7.89C485.12,77.04,483.35,79.81,479.79,81.5z M455.19,78.42h15.07c2.29,0,3.88-0.34,4.78-1.01
			c1.02-0.77,1.53-1.96,1.53-3.57c0-1.65-0.48-2.83-1.44-3.53c-0.96-0.7-2.58-1.05-4.87-1.05h-15.07V78.42z M455.19,95.61h14.58
			c2.71,0,4.66-0.37,5.85-1.12c1.36-0.86,2.05-2.28,2.05-4.23c0-1.94-0.68-3.35-2.05-4.23c-1.17-0.75-3.12-1.12-5.85-1.12h-14.58
			V95.61z"/>
		<path class="st4" d="M511.61,84.84v10.77h25.29c0.58,0,1.02-0.13,1.33-0.4c0.31-0.27,0.56-0.75,0.75-1.44h0.92v10.17h-0.92
			c-0.19-0.69-0.44-1.17-0.75-1.44c-0.31-0.27-0.75-0.4-1.33-0.4h-35.72v-0.92c0.69-0.19,1.17-0.44,1.44-0.75
			c0.27-0.31,0.4-0.76,0.4-1.35V65.8c0-0.6-0.13-1.05-0.4-1.35c-0.27-0.31-0.75-0.56-1.44-0.75v-0.92h35.03
			c0.58,0,1.02-0.14,1.33-0.41c0.31-0.27,0.56-0.75,0.75-1.43h0.92V71.1h-0.92c-0.19-0.68-0.44-1.16-0.75-1.43
			c-0.31-0.27-0.75-0.41-1.33-0.41h-24.6v9.33h15.96c0.58,0,1.02-0.13,1.33-0.4c0.31-0.27,0.56-0.75,0.75-1.44h0.92v9.94h-0.92
			c-0.19-0.67-0.44-1.15-0.75-1.43c-0.31-0.28-0.75-0.42-1.33-0.42H511.61z"/>
		<path class="st4" d="M575.51,69.25v29.82c0,0.6,0.13,1.05,0.4,1.35c0.27,0.31,0.75,0.56,1.44,0.75v0.92h-12.27v-0.92
			c0.69-0.19,1.17-0.44,1.44-0.75c0.27-0.31,0.4-0.76,0.4-1.35V69.25h-12.21c-0.58,0-1.02,0.13-1.33,0.4
			c-0.31,0.26-0.56,0.75-0.75,1.45h-0.92V60.93h0.92c0.21,0.7,0.46,1.18,0.76,1.45c0.3,0.26,0.73,0.4,1.31,0.4h32.99
			c0.6,0,1.05-0.13,1.35-0.4c0.31-0.26,0.56-0.75,0.75-1.45h0.92V71.1h-0.92c-0.19-0.7-0.44-1.19-0.75-1.45
			c-0.31-0.26-0.76-0.4-1.35-0.4H575.51z"/>
	</g>
	<polygon class="st5" points="72.89,8.57 103.03,60.78 133.17,112.98 72.89,112.98 12.61,112.98 42.75,60.78 	"/>
	<line class="st5" x1="72.89" y1="8.57" x2="81.05" y2="112.98"/>
	<line class="st6" x1="74.48" y1="28.98" x2="83.86" y2="28.98"/>
	<line class="st6" x1="76.2" y1="40.39" x2="91.3" y2="40.39"/>
	<line class="st6" x1="76.34" y1="52.76" x2="97.98" y2="52.76"/>
	<line class="st6" x1="78.24" y1="66.01" x2="105.86" y2="66.01"/>
	<line class="st6" x1="78.53" y1="80.75" x2="113.99" y2="80.75"/>
	<line class="st6" x1="80.45" y1="95.97" x2="122.58" y2="95.97"/>
	<line class="st6" x1="116.11" y1="73.44" x2="441.22" y2="73.44"/>
	<line class="st6" x1="125.31" y1="82.99" x2="441.22" y2="82.99"/>
	<line class="st6" x1="441.22" y1="92.54" x2="135.52" y2="92.54"/>
</g>
</svg>
