<?xml version="1.0" encoding="utf-8"?>
<!-- Generator: Adobe Illustrator 23.0.0, SVG Export Plug-In . SVG Version: 6.00 Build 0)  -->
<svg version="1.1" xmlns="http://www.w3.org/2000/svg" xmlns:xlink="http://www.w3.org/1999/xlink" x="0px" y="0px"
	 viewBox="0 0 496 203" style="enable-background:new 0 0 496 203;" xml:space="preserve">
<style type="text/css">
	.st0{display:none;}
	.st1{display:inline;fill:#BF8200;}
	.st2{display:inline;fill:#FFFFFF;}
	.st3{fill:#FFFFFF;}
	.st4{fill:#F2CE00;}
</style>
<g id="Capa_1" class="st0">
	<circle class="st1" cx="588.17" cy="374.81" r="42.21"/>
	<rect x="306.4" y="332.6" class="st1" width="281.77" height="84.42"/>
	<text transform="matrix(1 0 0 1 38.0413 403.2988)" style="display:inline;"><tspan x="0" y="0" class="st3" style="font-family:'CocogooseClassicTrial-Medium'; font-size:87.1174px; letter-spacing:13;">MAGI</tspan><tspan x="274.53" y="0" class="st3" style="font-family:'CocogooseClassicTrial-ExtraBold'; font-size:87.1174px; letter-spacing:13;">PLAY</tspan></text>
	<polygon class="st2" points="602.32,374.81 590.59,381.58 578.87,388.34 578.87,374.81 578.87,361.27 590.59,368.04 	"/>
</g>
<g id="Capa_2">
	<g>
		<path class="st3" d="M54.89,66.29c2.63,0.04,5.14,0.06,7.52,0.06c4.07,0,7.26-0.02,9.56-0.06c-0.25,2.63-0.5,6.36-0.76,11.18
			c-0.26,4.82-0.42,8.46-0.47,10.92c-2.21,0.4-4.04,0.7-5.49,0.88c-1.45,0.18-3.19,0.35-5.23,0.49c-2.04,0.14-3.85,0.22-5.44,0.22
			c-2.61,0-5.18-0.21-7.69-0.63s-4.77-1.1-6.76-2.04c-1.99-0.94-3.64-2.22-4.97-3.83s-2.35-3.52-3.07-5.73
			c-0.72-2.21-1.08-4.49-1.08-6.86c0-3.9,0.97-7.52,2.91-10.86c1.94-3.34,4.73-5.99,8.37-7.94s8.34-2.92,14.1-2.92
			c4.21,0,8.86,0.51,13.97,1.53c0,2.8,0.12,5.92,0.37,9.36c-1.38-0.46-2.5-0.81-3.36-1.05c-0.85-0.24-1.85-0.46-3-0.66
			c-1.14-0.2-2.23-0.35-3.26-0.45c-1.03-0.1-1.94-0.14-2.75-0.14c-2.11,0-4.11,0.3-5.99,0.91c-1.88,0.6-3.5,1.54-4.85,2.79
			c-1.35,1.26-2.37,2.76-3.04,4.51c-0.67,1.75-1.01,3.59-1.01,5.53c0,1.98,0.38,3.74,1.15,5.29c0.77,1.55,1.99,2.72,3.66,3.53
			s3.53,1.21,5.59,1.21c1.71,0,3.58-0.25,5.62-0.75l0.33-6.25c-1.25-0.06-1.99-0.09-2.22-0.09l-3.06,0.03l0.2-3.54
			c0.02-0.38,0.05-0.94,0.09-1.66C54.87,68.52,54.89,67.54,54.89,66.29z"/>
		<path class="st3" d="M72.63,89.22l2.39-4.15l14.9-28.06l1.59-3.14c0.46-0.92,1.1-2.25,1.93-3.98c3.38,0.04,5.85,0.06,7.4,0.06
			c2.71,0,5.21-0.02,7.52-0.06l4.2,12.01l8.55,23.1l1.67,4.21c-3.33-0.04-5.34-0.06-6.06-0.06c-1.62,0-3.99,0.02-7.12,0.06
			c-0.84-3.17-2.06-6.89-3.65-11.18h-14.5c-1.67,3.38-3.4,7.11-5.18,11.18c-3.58-0.04-5.77-0.06-6.58-0.06
			C78.24,89.16,75.88,89.18,72.63,89.22z M94.94,69.66h8.95c-2.22-6.77-3.44-10.5-3.65-11.19c-1.27,2.82-2.34,5.13-3.22,6.93
			L94.94,69.66z"/>
		<path class="st3" d="M125.84,89.22l0.58-6.05l1.12-20.51l0.32-8.27V49.9c2.98,0.04,5.62,0.06,7.91,0.06c1.63,0,3.93-0.02,6.9-0.06
			l12.3,22.36l1.69,3.29c0.22-3.23,0.44-7.75,0.67-13.57c0.23-5.82,0.34-9.85,0.34-12.08c2.36,0.04,4.25,0.06,5.67,0.06
			c0.65,0,2.53-0.02,5.64-0.06l-0.69,8.59l-1.3,23.85l-0.17,6.88c-2.5-0.04-4.83-0.06-7.01-0.06c-1.81,0-4.31,0.02-7.5,0.06
			c-1-1.88-1.74-3.25-2.22-4.09l-4.83-8.21c-1.59-2.69-3.06-5.26-4.4-7.72c-0.88-1.56-1.79-3.27-2.73-5.13l-0.62,13.66l-0.3,11.5
			c-2.38-0.04-4.19-0.06-5.44-0.06C130.72,89.16,128.74,89.18,125.84,89.22z"/>
		<path class="st3" d="M169.08,89.22l2.39-4.15l14.9-28.06l1.59-3.14c0.46-0.92,1.1-2.25,1.93-3.98c3.38,0.04,5.85,0.06,7.4,0.06
			c2.71,0,5.21-0.02,7.52-0.06l4.2,12.01l8.55,23.1l1.67,4.21c-3.33-0.04-5.34-0.06-6.06-0.06c-1.62,0-3.99,0.02-7.12,0.06
			c-0.84-3.17-2.06-6.89-3.65-11.18h-14.5c-1.67,3.38-3.4,7.11-5.18,11.18c-3.58-0.04-5.77-0.06-6.58-0.06
			C174.69,89.16,172.33,89.18,169.08,89.22z M191.39,69.66h8.95c-2.22-6.77-3.44-10.5-3.65-11.19c-1.27,2.82-2.34,5.13-3.22,6.93
			L191.39,69.66z"/>
		<path class="st3" d="M223.25,89.22l0.72-10.83l0.81-20.25l0.09-4.41c0.02-1.11,0.03-2.39,0.03-3.83
			c4.34,0.02,8.78,0.03,13.33,0.03l9.19-0.03h2.94c-0.13,1.34-0.22,2.68-0.26,4.03l-2.56-0.14c-0.63-0.04-1.72-0.07-3.27-0.09
			c-1.55-0.02-3.08-0.03-4.59-0.03c-4.53,0-7.69,0.03-9.48,0.09l-0.52,13.48c2.96,0.06,5.61,0.09,7.95,0.09
			c2.56,0,5.91-0.04,10.06-0.12c-0.13,1.34-0.22,2.67-0.26,3.98l-9.91-0.09c-1.94,0-4.64,0.04-8.1,0.12l-0.52,14.23l3,0.03
			c5.44,0,9.05-0.02,10.82-0.06c1.78-0.04,3.86-0.13,6.24-0.26c-0.13,1.42-0.22,2.78-0.26,4.06c-4.63-0.04-8.54-0.06-11.73-0.06
			L223.25,89.22z"/>
		<path class="st3" d="M256.61,89.22l0.58-8.01l0.98-23.39l0.12-4.55c0.02-1.44,0.03-2.56,0.03-3.37c1.44,0.02,2.64,0.03,3.6,0.03
			c0.79,0,1.89-0.01,3.31-0.03l3.14,5.07l19.04,28.72l1.21-33.79l2.57,0.03l2.54-0.03l-0.63,10.08l-0.78,17.77l-0.34,11.47
			c-1.13-0.04-2.24-0.06-3.34-0.06c-1,0-2.16,0.02-3.48,0.06l-2.65-4.23l-19.52-29.24c-0.08,1.08-0.15,2.77-0.23,5.07l-0.8,20.37
			l-0.17,8.04c-1.25-0.04-2.09-0.06-2.51-0.06C258.95,89.16,258.07,89.18,256.61,89.22z"/>
	</g>
	<g>
		<path class="st4" d="M110.24,172.03c-0.55,2.67-1.21,6.4-1.98,11.19c-0.77,4.78-1.3,8.49-1.57,11.12
			c-9.73,1.46-18.42,2.18-26.06,2.18c-7.37,0-14.22-0.92-20.57-2.76s-12.17-4.87-17.46-9.07c-5.3-4.21-9.08-9.15-11.36-14.84
			c-2.27-5.68-3.41-12.05-3.41-19.1c0-8.23,1.53-15.63,4.6-22.2c3.07-6.57,7.48-12.05,13.23-16.44c5.75-4.39,12.06-7.53,18.93-9.41
			c6.87-1.89,13.96-2.83,21.28-2.83c6.73,0,15.05,0.86,24.97,2.59l0.14,5.73c0.09,2.5,0.23,5.25,0.41,8.25l0.48,7.78
			c-5.32-1.27-9.63-2.14-12.93-2.59c-3.3-0.45-6.36-0.68-9.17-0.68c-6.14,0-11.66,1.23-16.58,3.68c-4.91,2.46-8.78,6.03-11.6,10.71
			c-2.82,4.68-4.23,9.87-4.23,15.55c0,5.18,1.18,9.63,3.55,13.34c2.36,3.71,5.56,6.57,9.58,8.59c4.02,2.02,8.99,3.04,14.9,3.04
			c3.23,0,6.74-0.26,10.54-0.78C99.74,174.54,104.51,173.53,110.24,172.03z"/>
		<path class="st4" d="M111.06,194.74l5.66-9.82L152,118.48l3.75-7.44c1.09-2.18,2.62-5.32,4.57-9.41c8,0.09,13.85,0.14,17.53,0.14
			c6.41,0,12.34-0.04,17.8-0.14l9.95,28.44l20.25,54.71l3.95,9.96c-7.88-0.09-12.66-0.14-14.34-0.14c-3.82,0-9.45,0.05-16.87,0.14
			c-2-7.5-4.88-16.33-8.65-26.47h-34.34c-3.95,8-8.04,16.83-12.27,26.47c-8.47-0.09-13.66-0.14-15.57-0.14
			C124.32,194.6,118.75,194.65,111.06,194.74z M163.87,148.42h21.19c-5.27-16.02-8.15-24.85-8.65-26.49
			c-3,6.67-5.54,12.14-7.63,16.41L163.87,148.42z"/>
		<path class="st4" d="M236.16,193.31c-0.59-9.69-1.27-17.44-2.05-23.26c5.1,2.27,9.65,3.85,13.63,4.74
			c3.99,0.89,7.48,1.33,10.49,1.33c3.96,0,7.12-0.58,9.46-1.74c2.35-1.16,3.52-2.88,3.52-5.15c0-0.77-0.11-1.51-0.34-2.22
			s-0.66-1.5-1.3-2.39c-0.64-0.89-1.55-1.85-2.73-2.9l-12.85-11.19c-3.01-2.55-5.1-4.39-6.29-5.53c-2.42-2.32-4.3-4.48-5.64-6.48
			c-1.35-2-2.32-4.04-2.94-6.11c-0.62-2.07-0.92-4.26-0.92-6.58c0-2.77,0.49-5.49,1.47-8.15c0.98-2.66,2.44-5.15,4.4-7.47
			c1.95-2.32,4.55-4.32,7.78-6c3.23-1.68,6.69-2.83,10.37-3.44c3.68-0.61,7.48-0.92,11.39-0.92c7.68,0,16.05,0.89,25.1,2.66
			c0.14,3.14,0.3,6.01,0.48,8.63c0.18,2.62,0.61,7.2,1.3,13.75c-4.18-1.68-8-2.85-11.46-3.51c-3.46-0.66-6.44-0.99-8.94-0.99
			c-3.55,0-6.49,0.66-8.83,1.98c-2.34,1.32-3.51,2.96-3.51,4.91c0,0.91,0.18,1.8,0.55,2.66c0.36,0.86,1.05,1.88,2.05,3.04
			c1,1.16,2.32,2.43,3.96,3.82c1.64,1.39,4.21,3.44,7.71,6.17l4.91,3.89c1.45,1.18,3.02,2.62,4.71,4.3
			c1.68,1.68,3.14,3.34,4.37,4.98c1.23,1.64,2.17,3.14,2.83,4.5c0.66,1.36,1.15,2.74,1.47,4.13c0.32,1.39,0.48,2.88,0.48,4.47
			c0,4.09-0.98,7.99-2.93,11.7c-1.96,3.71-4.73,6.75-8.32,9.14c-3.59,2.39-7.54,4.06-11.83,5.01s-8.83,1.43-13.61,1.43
			C256.69,196.51,247.39,195.45,236.16,193.31z"/>
		<path class="st4" d="M301.99,194.74l5.66-9.82l35.28-66.44l3.75-7.44c1.09-2.18,2.62-5.32,4.57-9.41c8,0.09,13.85,0.14,17.53,0.14
			c6.41,0,12.35-0.04,17.8-0.14l9.95,28.44l20.25,54.71l3.95,9.96c-7.88-0.09-12.66-0.14-14.34-0.14c-3.82,0-9.45,0.05-16.87,0.14
			c-2-7.5-4.88-16.33-8.65-26.47h-34.34c-3.95,8-8.04,16.83-12.27,26.47c-8.47-0.09-13.66-0.14-15.57-0.14
			C315.25,194.6,309.68,194.65,301.99,194.74z M354.8,148.42h21.19c-5.27-16.02-8.15-24.85-8.65-26.49
			c-3,6.67-5.54,12.14-7.63,16.41L354.8,148.42z"/>
	</g>
	<polygon class="st3" points="297.13,88.63 352.96,18.67 415.6,90.84 415.6,62.92 436.19,62.92 436.19,113.48 482.66,169.99 
		452.02,169.99 355.34,51.52 327.94,88.63 	"/>
	<g>
		<path class="st4" d="M426.25,54.4c-0.02-2.14-0.04-4.28-0.06-6.42c-0.05-4.87-0.1-9.74-0.15-14.61
			c-0.05-5.28-0.11-10.56-0.16-15.85c-0.03-3.37-0.07-6.75-0.1-10.12c0-0.25,0-0.51-0.01-0.75c-1.5,2.11-2.68,4.44-4.25,6.53
			c-2.62,3.49-5.69,6.66-8.76,9.76c-2.66,2.69-6.01,5.08-7.37,8.76c-2.38,6.46,2.27,13.91,9.14,14.35c3.7,0.24,7.65-1.68,10.03-4.51
			c-0.89,8.17-4.4,14.62-4.4,14.62S423.44,54.08,426.25,54.4z"/>
		<path class="st4" d="M425.19,54.4c0.02-2.14,0.04-4.28,0.06-6.42c0.05-4.87,0.1-9.74,0.15-14.61c0.05-5.28,0.11-10.56,0.16-15.85
			c0.03-3.37,0.07-6.75,0.1-10.12c0-0.25,0-0.51,0.01-0.75c1.5,2.11,2.68,4.44,4.25,6.53c2.62,3.49,5.69,6.66,8.76,9.76
			c2.66,2.69,6.01,5.08,7.37,8.76c2.38,6.46-2.27,13.91-9.14,14.35c-3.7,0.24-7.65-1.68-10.03-4.51c0.89,8.17,4.4,14.62,4.4,14.62
			S427.99,54.08,425.19,54.4z"/>
	</g>
</g>
</svg>
