<?xml version="1.0" encoding="utf-8"?>
<!-- Generator: Adobe Illustrator 23.0.0, SVG Export Plug-In . SVG Version: 6.00 Build 0)  -->
<svg version="1.1" id="Capa_1" xmlns="http://www.w3.org/2000/svg" xmlns:xlink="http://www.w3.org/1999/xlink" x="0px" y="0px"
	 viewBox="0 0 401 88" style="enable-background:new 0 0 401 88;" xml:space="preserve">
<style type="text/css">
	.st0{fill:#FFFFFF;}
	.st1{fill:#DA4167;}
</style>
<g>
	<g>
		<path class="st0" d="M42.7,19.4V34c3.3-0.3,5.8-1.7,7.6-4.2c1.7-2.6,2.6-6.1,2.6-10.5h19.8c0,5.4-0.7,9.8-2.1,13.3
			C69.1,36.1,67,39,64,41.3c6,4.6,9.3,11.9,9.9,22.1h-21c-0.5-10.5-3.9-15.8-10.2-16v16H23.2v-44H42.7z"/>
		<path class="st0" d="M101.7,64c-6.3,0-11.6-2.2-16-6.6c-4.4-4.4-6.6-9.8-6.6-16.1c0-6.3,2.2-11.7,6.6-16.1s9.7-6.6,16-6.6
			c6.3,0,11.6,2.2,16,6.6s6.6,9.7,6.6,16.1c0,6.3-2.2,11.7-6.6,16.1S108,64,101.7,64z M101.7,35.5c-1.3,0-2.3,0.4-3.1,1.3
			s-1.2,2-1.2,3.3s0.4,2.4,1.2,3.3c0.8,0.9,1.9,1.3,3.1,1.3c1.3,0,2.3-0.4,3.1-1.3c0.8-0.9,1.2-2,1.2-3.3s-0.4-2.4-1.2-3.3
			C104,36,103,35.5,101.7,35.5z"/>
		<path class="st0" d="M177.9,63.7h-14.8l-9.4-13.9v13.5h-19.4v-44h13.9l10.3,14.9V19.4h19.5V63.7z"/>
		<path class="st0" d="M204.1,63.3h-19.5l15.3-44h27.7l15.3,44h-19.4l-2.5-7.4h-14.3L204.1,63.3z M210.2,45.5h7.2l-3.6-10.9
			L210.2,45.5z"/>
		<path class="st1" d="M250.2,19.4h27.5c5.6,0,9.9,1.1,12.8,3.3s4.3,5.2,4.3,9c0,4.1-1.9,7.3-5.7,9.5c2.3,1.2,4,2.6,5.2,4.2
			c1.2,1.6,1.8,3.6,1.8,5.9c0,3.7-1.3,6.6-4,8.8c-2.6,2.2-6.3,3.3-11.1,3.3h-30.7L250.2,19.4L250.2,19.4z M269.7,28.2v8.6h0.5
			c2.1,0,3.6-0.3,4.5-1s1.3-1.8,1.3-3.3c0-2.8-1.7-4.3-5.1-4.3L269.7,28.2L269.7,28.2z M269.7,44.1v9.5h0.6c2.2,0,3.8-0.3,4.8-1
			c1-0.7,1.4-1.9,1.4-3.5c0-3.3-1.8-5-5.4-5H269.7z"/>
		<path class="st1" d="M341.5,52.3v11H305v-44h36.5v11h-17.1v5.4h11.9v11h-11.9v5.4L341.5,52.3L341.5,52.3z"/>
		<path class="st1" d="M347.1,38.8V19.4h39.1v19.5h-9.8v24.5h-19.5V38.8H347.1z"/>
	</g>
</g>
<rect x="-228.1" y="-162" class="st1" width="188.4" height="90.4"/>
</svg>
